<?xml version="1.0"?>
<svg xmlns:rdf="http://www.w3.org/1999/02/22-rdf-syntax-ns#" xmlns="http://www.w3.org/2000/svg" xmlns:cc="http://web.resource.org/cc/" xmlns:xlink="http://www.w3.org/1999/xlink" xmlns:dc="http://purl.org/dc/elements/1.1/" xmlns:svg="http://www.w3.org/2000/svg" id="Layer_1" xml:space="preserve" overflow="visible" viewBox="0 0 216.83 503.769" version="1.1" enable-background="new 0 0 216.83 503.769">
<g clip-rule="evenodd" fill-rule="evenodd">
	<path d="m68.119 30.691c1.366 17.295 0.572 36.123 0.452 52.461-1.22-16.916-0.13-33.578-0.452-52.461z" fill="#A99A6F"/>
	<path d="m109.72 46.067c-1.773 2.221-5.758-0.202-8.14 0.905 1.9-2.015 4.99-0.844 8.14-0.905z" fill="#EE3224"/>
	<path d="m102.04 50.138c1.99 5.048 1.117 10.392 0.453 16.281-2.43-4.139 0.25-10.87-0.45-16.281z" fill="#EE3224"/>
	<path d="m104.75 51.495c1.802 3.347 0.951 10.134 0.452 14.924-1.32-3.558-0.07-9.27-0.45-14.924z" fill="#EE3224"/>
	<path d="m107.46 52.399c1.745 3.107 1.639 9.231 0.904 14.02-2.26-2.996-0.04-10.855-0.9-14.02z" fill="#EE3224"/>
	<path d="m110.63 54.208c0.891 3.631 1.502 8.514 0.452 12.663-1.41-4.728-0.49-7.559-0.45-12.663z" fill="#EE3224"/>
	<path d="m97.515 56.469c1.44 0.013 0.688 1.76 0.453 3.166-1.012-0.195-0.184-2.229-0.453-3.166z" fill="#EE3224"/>
	<path d="m99.324 59.183c1.318 0.518 0.691 1.746 0.452 3.618-0.514 4.031-0.283 3.046-0.452-3.618z" fill="#EE3224"/>
	<path d="m97.515 60.54c0.109 0.286 0.654 4.854-0.904 4.975 0.473-1.487 0.216-3.704 0.904-4.975z" fill="#EE3224"/>
	<path d="m119.22 70.489c-9.02 0.21-14.859-0.736-24.422-0.452-0.032-1.54 1.331-1.685 2.261-2.261 7.321 0.976 18.251-1.67 22.161 2.713z" fill="#A99A6F"/>
	<path d="m127.82 74.107c-13.009 1.348-25.484-0.248-39.798 0 3.052-3.833 12.218-2.838 20.351-2.714 8.15 0.125 13.51-0.476 19.45 2.714z" fill="#A99A6F"/>
	<path d="m130.53 77.725c-1.427 4.472-8.388 1.862-11.759 1.809-10.364-0.164-23.08 0.53-34.371-0.452 0.141-1.367-0.502-3.517 0.905-3.618 10.152 0.477 25.971 0.643 35.728 0.905 3.29 0.088 7.34-1.193 9.5 1.356z" fill="#A99A6F"/>
	<path d="m186.16 79.082c0.402 0.2 0.809 0.397 0.904 0.904-0.828 8.252 1.092 14.334-0.904 22.16v-23.068z" fill="#A99A6F"/>
	<path d="m99.324 92.649c1.219-1.042 4.362-0.161 6.332-0.452-1.22 1.042-4.37 0.16-6.336 0.452z" fill="#A99A6F"/>
	<path d="m157.21 92.197c0.526-0.074 0.805 0.1 0.904 0.452-0.183 11.042 0.315 23.838 0 31.205-1.08-10.62 0.01-23.13-0.9-31.653z"/>
	<path d="m154.5 93.101c-3.923 1.053-9.797 0.153-14.473 0.453 5.29-1.863 9.65-0.308 14.47-0.453z"/>
	<path d="m102.49 94.91c3.316 0.302 6.603 0.633 10.401 0.452-1.96 9.292-0.241 25.708-0.904 36.18 0.677 0.679 0.809 1.904 1.809 2.261 0.942-1.119-1.937-2.264-0.904-4.975 1.578 0.382 1.111 2.809 2.714 3.166h13.567c-2.771 2.355-10.496-0.245-14.02 1.357 3.108 1.414 9.755-0.71 12.21 1.356-0.015 3.483-0.136 7.071 0.453 9.95h-37.537c0.071-3.84 0.043-7.581-0.452-10.854h9.497c-4.418-1.189-7.979-0.121-11.306-0.905 2.811-2.013 9.276-0.372 13.567-0.904 1.74-14.18 1.08-24.81 0.9-37.09z" fill="#A99A6F"/>
	<path d="m88.922 102.6c-1.999 1.022-5.354-0.311-8.592 0-2.848 0.273-5.487 2.182-7.688 0.904 0.191-0.945-0.31-1.197-0.452-1.809 2.404-5.062 15.831-6.733 16.732 0.91zm-14.924-0.91c2.178-0.837 5.042-0.988 6.332-2.713-2.953 0.066-5.551 0.483-6.332 2.713z"/>
	<path d="m146.81 102.6c-0.842 3.956-5.815 0.297-9.497 0.452-3.252 0.137-6.736 2.87-9.045 0.452 1.35-7.248 15.8-5.785 18.55-0.9zm-16.73 0.45c2.988-1.662 6.851-2.307 10.401-2.261-2.13-3.095-11.19-0.45-10.4 2.26z"/>
	<path d="m80.33 98.98c-1.29 1.726-4.154 1.876-6.332 2.713 0.781-2.23 3.379-2.647 6.332-2.71z" fill="#A99A6F"/>
	<path d="m140.48 100.79c-3.551-0.046-7.413 0.6-10.401 2.261-0.79-2.71 8.27-5.355 10.4-2.26z" fill="#A99A6F"/>
	<path d="m56.812 100.34c0.108 4.736 0.49 10.049 0 14.02-4.547-0.732-8.3-0.111-12.663-0.452-0.404-3.867-0.136-8.602-0.904-13.115 3.655-1.028 9.168-0.19 13.567-0.46z" fill="#A99A6F"/>
	<path d="m41.888 103.5c1.628 0.694 0.295 2.673 0.905 4.975-0.856-1.11-0.971-2.95-0.905-4.98z" fill="#A99A6F"/>
	<path d="m135.96 105.76c3.581-0.787 8.928 1.319 8.141 7.688-0.359 2.91-3.396 5.514-4.975 5.879-8.34 1.93-13.71-11.25-3.16-13.57zm5.88 10.41c3.051-4.049 1.232-10.701-7.236-9.498-8.77 4.2 1.29 17.38 7.24 9.5z"/>
	<path d="m193.84 105.76c-0.656 1.604-0.201 4.321-1.356 5.427h-13.115c3.489-1.989 7.903-0.256 12.663-0.905-3.621-1.052-9.193-0.153-13.567-0.452-0.952-1.006 0.477-2.181 0-4.07 6.36 0.23 10.5-0.65 15.39 0z" fill="#A99A6F"/>
	<path d="m23.346 107.12h17.186v3.166c-4.713 0.748-12.473 0.748-17.186 0v-3.17z" fill="#A99A6F"/>
	<path d="m194.3 107.57c1.722 0.371 1.722 3.247 0 3.618v-3.62z" fill="#A99A6F"/>
	<path d="m135.05 116.17c4.315-0.436 5.603-3.649 5.427-6.332 4.92 2.26-1.99 11.24-5.43 6.33z"/>
	<path d="m36.914 111.19c-1.284 2.032-6.274 0.358-9.045 0.904 1.947-1.48 6.64 0.13 9.045-0.9z" fill="#A99A6F"/>
	<path d="m173.49 112.1c-1.189 2.642-8.67 1.194-11.307 0.904 2.04-1.8 9.21-0.66 11.31-0.9z" fill="#A99A6F"/>
	<path d="m162.64 114.36h10.402c-2.91 1.47-8.29 1.77-10.4 0z" fill="#A99A6F"/>
	<path d="m56.812 114.81c-1.144 2.568-11.792 1.52-12.211 0.452 3.212-1.01 8.258-0.18 12.211-0.45z" fill="#A99A6F"/>
	<path d="m126.01 146.01c-10.931 1.172-18.017-0.359-29.396 0 6.946-0.75 20.936-0.75 29.396 0z" fill="#A99A6F"/>
	<path d="m195.65 157.77c-42.972 2.5-92 0.887-139.74 1.356 36.356-1.264 68.97-1.356 99.947-1.356 12.78 0 29.52-0.05 39.79 0z" fill="#A99A6F"/>
	<path d="m121.03 160.94c1.274 0.982 1.203 6.38 0.452 9.045-0.88-2.08-0.4-7.61-0.45-9.04z"/>
	<path d="m118.32 161.39c1.154 1.959 0.62 5.219 0.452 7.236-1.05-1.52-0.16-4.97-0.45-7.24z"/>
	<path d="m126.46 161.39c2.372 5.768-0.256 16.537 1.357 23.065-2.25-8.18-0.53-14.28-1.36-23.07z"/>
	<path d="m131.88 161.39c1.051 12.518 0.367 29.884 0.905 37.537-1.87-10.96-0.62-28.29-0.9-37.54z"/>
	<path d="m34.652 162.3c1.755 0.113 0.874 4.563 0.452 5.427-1.037-0.93-0.163-3.76-0.452-5.43z"/>
	<path d="m134.15 165.46c0.525-0.073 0.805 0.1 0.904 0.452-0.192 21.062 0.369 40.073 0 55.174-1.434-17.094-0.438-30.377-0.904-54.27v-1.35z"/>
	<path d="m37.818 165.91c1.02 0.337 0.177 2.537 0.452 3.618-1.525-0.81-0.384-2.22-0.452-3.62z"/>
	<path d="m55.908 165.91c0.849 7.845 1.12 22.451-0.452 32.562 0.591-12.06 0.252-20.74 0.452-32.56z"/>
	<path d="m45.958 166.37c0.519 1.289 1.26 6.675-0.452 7.236 0.265-3.3-0.305-4.92 0.452-7.24z"/>
	<path d="m50.933 166.37c1.724 2.835 0.517 9.218 0.905 14.472-2.077-3.05-0.327-9.93-0.905-14.47z"/>
	<path d="m42.793 169.53c1.134 3.115 0.837 5.492 0.452 8.593-1.048-1.96-0.156-5.87-0.452-8.59z"/>
	<path d="m140.93 173.15c-0.651 3.039 0.384 9.065 0 14.472-1.39-3.46-1.49-10.72 0-14.47z"/>
	<path d="m58.169 174.96c1.589 6.361 1.008 17.319 0.452 26.23-1.112-6.15-0.109-17.86-0.452-26.23z"/>
	<path d="m60.883 187.17c0.675 2.823 1.205 11.213-0.452 14.472 0.837-4.6 0.221-8.75 0.452-14.47z"/>
	<path d="m140.03 188.53c1.492 1.304 1.492 8.645 0 9.949 0.35-4.44 0.12-5.68 0-9.95z"/>
	<path d="m62.692 193.5c2.008 0.856 0.376 5.352 0.904 7.688-2.008-0.86-0.376-5.35-0.904-7.69z"/>
	<path d="m140.03 199.38c2.008 0.856 0.377 5.353 0.904 7.688-2.01-0.86-0.38-5.35-0.9-7.69z"/>
	<path d="m32.843 199.83c1.004 15.627 0.482 33.646-0.452 48.843-0.353-15.38 0.063-35.93 0.452-48.84z"/>
	<path d="m200.18 200.74c0.525-0.074 0.805 0.1 0.904 0.452 0.286 11.35 1.366 25.767-0.904 36.18 0.64-9.8 0.82-25.44 0-36.63z"/>
	<path d="m35.557 203c0.758 0.654 1.325 2.692 0.453 3.618-1.021-0.34-0.178-2.54-0.453-3.62z" fill="#A99A6F"/>
	<path d="m41.888 206.62c1.982 19.138 0.67 41.911-2.261 57.436 1.909-18.13 3.02-41.6 2.261-57.44z"/>
	<path d="m167.16 207.52c1.52-0.464 0.704 1.407 0.905 2.261-0.91-0.33-1.84-1.36-0.9-2.26z" fill="#A99A6F"/>
	<path d="m38.723 210.23c0.802-1.207 0.33 2.65 0.452 3.618-0.802 1.21-0.33-2.65-0.452-3.62z" fill="#A99A6F"/>
	<path d="m35.557 210.23c0.526-0.073 0.805 0.1 0.905 0.453 0.081 16.474-0.116 26.277-1.357 41.154-0.696-12.17 0.911-25.89 0.452-41.6z" fill="#A99A6F"/>
	<path d="m205.6 211.59c1.745 11.867 0.75 21.495-0.452 34.371-0.67-9.56 1.03-22.18 0.45-34.37z" fill="#A99A6F"/>
	<path d="m38.723 215.21c0.943 0.754 0.449 4.667 0.452 7.236-0.853 1.73-0.295-5.31-0.452-7.24z" fill="#A99A6F"/>
	<path d="m164.45 214.76h0.904v3.618h-0.904v-3.62z"/>
	<path d="m162.19 215.66c0.403 0.2 0.81 0.397 0.904 0.904-0.596 9.504 1.197 21.397-0.904 29.396 0.02-11.05 0.04-19.32 0-30.3z"/>
	<path d="m159.92 218.83c1.087 13.691 0.244 23.922 0.452 37.989 0.186 1.631-0.826 0.62-0.452-0.452v-7.236c0.05-10.82-0.1-21.5 0-30.31z"/>
	<path d="m157.21 222.44c0.816 10.968 0.95 18.443 0.452 28.04-0.75-10.29-0.76-19.77-0.45-28.04z"/>
	<path d="m38.723 224.25c0.445 1.271 1.345 10.639-0.453 12.663 0.503-4.04 0.411-7.44 0.453-12.66z" fill="#A99A6F"/>
	<path d="m134.6 227.42c1.787 3.696 0.028 8.332 0.452 15.829-1.89-3.25 0.25-9.1-0.45-15.83z"/>
	<path d="m154.5 227.42c1.337 1.725 1.476 7.062 0 9.045 0.2-3.68 0-5.05 0-9.04z"/>
	<path d="m208.32 227.42c0.713 2.621 1.214 8.64-0.452 11.306 0.91-3.01 0.24-7.59 0.45-11.31z" fill="#A99A6F"/>
	<path d="m167.61 229.23c1.049 1.051 1.109 5.451 0.452 8.593-1.04-1.97-0.15-5.87-0.45-8.59z" fill="#A99A6F"/>
	<path d="m151.78 229.68c1.627 3.131 0.883 15.203 0.452 20.351-1.05-5.88-0.15-13.72-0.45-20.35z"/>
	<path d="m123.29 235.56c2.523 11.002-20.835 18.836-26.683 7.236 7.273 8.67 26.133 4.96 26.683-7.24z"/>
	<path d="m149.52 235.56v7.236h-0.904c0.52-2.2-1.09-6.52 0.9-7.24z"/>
	<path d="m164.45 235.56c1.634-0.428 0.631 1.781 0.904 2.713-1.63 0.43-0.63-1.78-0.9-2.71z"/>
	<path d="m117.87 236.92c0.521 6.44-12.548 9.049-17.185 4.07 1.615-1.45 3.306 1.452 5.879 1.809 5.21 0.72 9.45-2.1 11.31-5.88z"/>
	<path d="m154.5 236.92c1.833-0.176 0.498 2.818 0.904 4.07-1.83 0.17-0.5-2.82-0.9-4.07z"/>
	<path d="m38.27 237.37c1.275 0.953 0.298 3.806 0.453 5.879-1.041-1.07-0.162-4.06-0.453-5.88z" fill="#A99A6F"/>
	<path d="m129.17 237.82c1.291 2.854 1.975 12.789-0.452 14.924 0.24-4.88-0.52-10.76 0.45-14.92z" fill="#A99A6F"/>
	<path d="m167.61 238.72c1.939 1.234-0.078 5.179 0.904 7.688-2-0.85-0.37-5.35-0.9-7.69z" fill="#A99A6F"/>
	<path d="m200.18 238.72c0.824 4.668 0.47 15.791-1.356 20.804 0.58-6.79 1.33-13.43 1.36-20.8z"/>
	<path d="m207.86 239.18c0.525-0.073 0.805 0.1 0.904 0.453-0.37 12.98-1.514 22.331-2.714 33.014-0.27-11 1.48-22.62 1.81-33.46z" fill="#A99A6F"/>
	<path d="m118.32 240.53c0.77-0.167 0.854 0.353 0.905 0.905-3.692 5.353-15.609 6.651-20.352 1.356 3.375 0.484 6.386 3.052 10.854 2.713 3.26-0.25 7.04-2.32 8.6-4.98z"/>
	<path d="m142.29 241.89c2.256 6.354 0.296 11.429 1.356 16.281-2.19-3.64-0.03-13.19-1.36-16.28z"/>
	<path d="m154.5 241.89c1.634-0.429 0.631 1.781 0.904 2.713-1.15-0.05-0.9-1.51-0.9-2.71z"/>
	<path d="m145.91 242.8c1.045 1.518 0.158 4.967 0.452 7.236-0.78-2.98-0.87-4.78-0.45-7.24z"/>
	<path d="m148.62 243.25c1.5 0.159 0.71 2.607 0.904 4.07-1.83 0.17-0.5-2.82-0.9-4.07z"/>
	<path d="m38.27 244.15c1.034 1.422-0.037 8.341-0.452 11.306-0.435-2.55 0.236-7.9 0.452-11.31z" fill="#A99A6F"/>
	<path d="m154.5 245.06c1.63 2.173 0.904 7.707 0.452 11.306-1.05-2.88-0.15-7.69-0.45-11.31z"/>
	<path d="m162.19 246.41c2.064 2.307 0.336 8.408 0.904 12.21-1.99-2.37-0.39-8.35-0.9-12.21z"/>
	<path d="m125.1 249.13c1.873-0.064 0.471 3.147 0.904 4.522-1.81-0.82 0.14-2.76-0.9-4.52z"/>
	<path d="m145.91 250.48c0.747 0.343 0.747 3.727 0 4.07 0.39-1.8-0.68-3.34 0-4.07z"/>
	<path d="m151.78 250.48c1.726 1.418-0.046 4.457 0.904 6.784-1.98-0.57-0.38-4.72-0.9-6.78z"/>
	<path d="m157.21 251.84c0.962-0.785 0.013 4.189 0.904 4.975-1.9-0.06-0.44-3.48-0.9-4.98z"/>
	<path d="m34.652 252.29c0.208 13.591-1.105 26.993-4.07 40.25 0.603-12.36 3.261-26.58 4.07-40.25z" fill="#A99A6F"/>
	<path d="m157.21 257.72c1.581 2.849 0.029 6.769 0.904 9.498-1.9 0.24-0.44-6.78-0.9-9.5z"/>
	<path d="m159.92 258.17c0.999 0.057 0.191 1.918 0.452 2.713-1.23 0-1.07-2.13-0.45-2.71z"/>
	<path d="m36.914 259.53c2.036 0.286-0.366 2.993 0.452 4.975-1.799-0.52 0.207-2.83-0.452-4.97z" fill="#A99A6F"/>
	<path d="m154.5 259.53c1.978 2.093 0.396 7.743 0.904 11.306-2.06-2.02-0.34-7.8-0.9-11.31z"/>
	<path d="m162.19 259.53c1.552 7.393 1.441 23.004 0 28.943-0.19-11.59 0.41-19.86 0-28.94z"/>
	<path d="m159.92 261.79c1.045 1.518 0.158 4.967 0.452 7.236-0.91-0.64-0.53-5.76-0.45-7.24z"/>
	<path d="m133.7 262.69c0.891 0.577 0.503 4.521 0.452 6.784-1.05-1.36-0.16-4.66-0.45-6.78z"/>
	<path d="m151.78 265.41c2.058 2.013 0.341 7.8 0.904 11.307-2.02-3.05-0.19-7.25-0.9-11.31z"/>
	<path d="m167.61 265.86c1.365 0.521 0.473 3.044 0.904 5.428-1.41-0.69-0.75-3.47-0.9-5.43z" fill="#A99A6F"/>
	<path d="m36.009 269.48c1.251 3.52-0.394 8.043-0.905 11.307-0.639-2.91 0.946-7.5 0.905-11.31z" fill="#A99A6F"/>
	<path d="m159.92 270.38c0.866-0.982 0.285 3.307 0.452 4.522-0.86 0.99-0.28-3.3-0.45-4.52z"/>
	<path d="m154.5 272.64c1.914 2.79 0.259 7.577 0.904 12.211-2.06-2.3-0.33-8.4-0.9-12.21z"/>
	<path d="m157.21 272.64c1.151 0.476 0.771 2.046 0.452 3.166-1.01-0.19-0.18-2.23-0.45-3.17z"/>
	<path d="m167.61 279.43c1.271-1.675 0.87 2.109 0.904 3.166-1.52-0.31-0.32-3.03-0.9-3.17z" fill="#A99A6F"/>
	<path d="m164.45 279.88c0.771 0.678 0.921 3.484 0.452 5.428-1.04-0.93-0.16-3.76-0.45-5.43z"/>
	<path d="m159.92 280.78c1.015 1.403 0.18 8.558 0.452 12.21-1.3-2.79-0.19-7.71-0.45-12.21z"/>
	<path d="m22.894 286.66c2.372-1.319 4.588 0.496 4.975 1.809 2.256 7.67-11.864 3.77-4.975-1.81zm-0.453 4.07c7.522 5.12 2.451-9.37 0 0z"/>
	<path d="m197.46 288.92v3.618c-7.92 6.1-7.14-10.7 0-3.62zm-4.97 3.17c1.23 0.9 4.349 0.666 4.07-1.356-0.28-3.87-6.04-1.82-4.07 1.36z"/>
	<path d="m38.723 292.09c2.537 2.18 4.503 7.195 4.07 10.854h-13.568c4.318-2.46 7.651-5.91 9.498-10.85z" fill="#A99A6F"/>
	<path d="m167.61 292.09c1.07 0.889 0.92 3 0.904 4.975-1.9-0.05-0.44-3.46-0.9-4.97z" fill="#A99A6F"/>
	<path d="m208.32 292.09c2.545 2.583 4.304 6.8 4.522 10.402-3.236 1.519-8.271 0.914-12.211 0.452 3.73-2.45 6.29-6.07 7.69-10.85z" fill="#A99A6F"/>
	<path d="m10.683 293.45c2.708 2.87 4.21 6.945 8.141 8.592-3.043 1.732-8.053 0.753-11.306 0.453 0.029-4.04 1.407-6.73 3.165-9.04z" fill="#A99A6F"/>
	<path d="m179.37 293.45c3.401 2.779 5.218 7.144 8.593 9.949-5.442-0.021-8.432-0.359-12.211 0 0-4.53 2.14-6.91 3.62-9.95z" fill="#A99A6F"/>
	<path d="m164.45 295.26c0.907 1.345 0.644 2.516 0.452 4.07-1.03-0.49-0.17-2.85-0.45-4.07z"/>
	<path d="m162.19 295.71c1.64 0.637 0.158 4.009 0.452 4.975-1.04-0.77-0.17-3.45-0.45-4.97z"/>
	<path d="m167.61 300.68c2.268 5.462 0.335 14.004 0.904 21.708-2.06-5.47-0.33-14.74-0.9-21.71z" fill="#A99A6F"/>
	<path d="m164.45 302.04c1.351 1.965 0.605 5.693 0.452 7.688-1.05-1.67-0.16-5.27-0.45-7.69z"/>
	<path d="m32.843 304.3c0.402 0.2 0.809 0.397 0.904 0.904-1.176 15.334-1.054 29.321-2.713 44.32-0.225-14.83 1.033-31.51 1.809-45.22z" fill="#A99A6F"/>
	<path d="m39.627 304.3h3.618c0.57 13.212-1.828 29.9-2.713 43.416-0.258 3.929 1.793 11.418-3.618 12.211-2.338-1.636-0.599-5.792-0.452-8.593 0.767-14.64 1.44-32.59 3.165-47.04z" fill="#A99A6F"/>
	<path d="m210.12 304.3h3.166c-0.041 13.154-1.357 29.573-1.81 44.772-0.113 3.835 0.791 9.742-3.617 10.854-1.903-3.095-1.124-8.576-0.905-13.568 0.58-13.17 1.01-30.91 3.16-42.05z" fill="#A99A6F"/>
	<path d="m204.25 304.75c0.525-0.073 0.805 0.1 0.904 0.452-0.804 9.831 0.3 21.124-1.809 32.109 0.33-10.01 0.56-20.63 0.91-32.56z" fill="#A99A6F"/>
	<path d="m151.33 322.84c-17.508 1.85-39.113 0.445-62.863 0.904h-8.593c-1.072 0.374-2.083-0.637-0.452-0.452 21.888-0.27 43.588-0.6 71.908-0.45z" fill="#A99A6F"/>
	<path d="m152.69 323.3c1.668-1.046 5.27-0.157 7.688-0.452-1.37 1.72-6.83 0.72-7.69 0.45z" fill="#A99A6F"/>
	<path d="m73.545 323.75c0.627-1.031 3.148-0.168 4.522-0.452-0.626 1.03-3.147 0.16-4.522 0.45z" fill="#A99A6F"/>
	<path d="m147.71 328.27c0.594 0.16 0.711 0.797 1.356 0.905-1.215 36.6 0.902 88.156 0.452 131.15-0.022 2.163 1.108 5.551-1.356 6.784-0.61-47.03-1.53-90.23-0.45-138.84z" fill="#A99A6F"/>
	<path d="m92.54 329.63c0.526-0.074 0.805 0.1 0.905 0.452 0.328 46.116 2.223 93.109 0.904 137.48 0.597 1.514 5.085-0.864 4.975 1.356-11.833-0.269-27.032 0.559-36.632-0.452 9.347-1.055 20.652-0.151 30.753-0.452-0.265-39.479-1.261-85.648-0.905-137.03v-1.36z" fill="#A99A6F"/>
	<path d="m150.43 330.08c1.557 42.019 1.123 94.374 1.356 136.58-2.2-46.14-1.1-83.76-1.36-136.58z" fill="#A99A6F"/>
	<path d="m153.14 330.08c1.39-0.692 1.39 2.953 0 2.261v-2.26z" fill="#A99A6F"/>
	<path d="m97.967 331.89c1.994 5.191 0.787 10.489 0.904 16.281-1.98-3.75-0.395-11.06-0.904-16.28z" fill="#A99A6F"/>
	<path d="m33.295 332.79c0.91-0.732 0.256 3.946 0.452 5.428-1.544-0.33 0.128-3.27-0.452-5.43z" fill="#A99A6F"/>
	<path d="m153.59 334.6c1.349 30.24 0.575 58.775 0.905 91.354-1.75-27.66-1.32-69.02-0.91-91.35z" fill="#A99A6F"/>
	<path d="m95.253 337.32c0.803 1.033 0.954 2.396 0.452 3.618-1.019-0.34-0.176-2.54-0.452-3.62z" fill="#A99A6F"/>
	<path d="m203.34 338.67c1.512 0.854 0.285 1.826 0.452 3.618-1.02-0.34-0.17-2.54-0.45-3.62z" fill="#A99A6F"/>
	<path d="m98.419 349.53c1.218 2.683 0.313 9.78 0.452 13.115-1.31-4.42-0.446-10.03-0.452-13.11z" fill="#A99A6F"/>
	<path d="m30.582 350.43c0.802-1.206 0.33 2.65 0.452 3.618-0.802 1.21-0.329-2.65-0.452-3.62z" fill="#A99A6F"/>
	<path d="m95.253 354.5c1.984 0.579 0.393 4.732 0.905 6.784-1.809-0.75-0.513-4.61-0.905-6.78z" fill="#A99A6F"/>
	<path d="m88.47 356.76c1.426 1.243 0.286 2.365 0.452 4.522-1.031-0.62-0.169-3.14-0.452-4.52z"/>
	<path d="m207.41 361.74c-0.053 3.113-0.524 5.808-0.905 8.593-1.169-2.158 0.625-4.748-0.452-7.236-2.603 13.076-8.134 23.222-16.28 30.753 7.056-4.1 13.429-12.801 15.828-23.064 0.402 3.838-1.587 8.958-4.07 13.115-3.185 5.331-8.37 11.106-14.02 14.472-2.961 1.765-16.089 7.594-16.281 1.81-0.066-2.009 3.939-3.215 5.88-4.522 8.599-5.799 17.569-20.832 8.141-33.919 6.11-0.19 14.71 0.12 22.16 0z" fill="#A99A6F"/>
	<path d="m88.47 362.19c0.658-0.276 0.904 3.282 0.452 4.522-1.031-0.63-0.169-3.15-0.452-4.52z"/>
	<path d="m33.748 362.19c-3.406 5.201-7.657 11.921-5.879 20.804 0.737-4.237 0.621-9.328 2.261-12.663-4.276 15.575 6.46 25.471 17.186 30.301-2.228 5.963-12.41 2.03-15.376 0.452-11.102-5.906-18.2-20.981-18.09-37.537-0.127-0.73 0.428-0.778 0.453-1.356 6.48 0.01 12.963 0.01 19.445 0.01z" fill="#A99A6F"/>
	<path d="m98.419 364.9c0.802-1.207 0.33 2.649 0.452 3.617-0.802 1.21-0.329-2.65-0.452-3.62z" fill="#A99A6F"/>
	<path d="m95.253 368.52c1.508 0.448 0.63 2.873 0.452 4.07-1.026-0.48-0.171-2.84-0.452-4.07z" fill="#A99A6F"/>
	<path d="m98.419 370.33c0.802-1.207 0.33 2.649 0.452 3.618-0.802 1.2-0.329-2.65-0.452-3.62z" fill="#A99A6F"/>
	<path d="m88.47 371.69c0.736 0.555 0.797 4.674 0.452 5.88-1.04-1.07-0.162-4.06-0.452-5.88z"/>
	<path d="m95.253 379.83c1.719-0.362 0.575 2.139 0.905 3.166-0.92-0.44-0.977-1.74-0.905-3.17z" fill="#A99A6F"/>
	<path d="m88.47 380.73c0.961-0.036 0.277 3.408 0.905 4.522-1.874 0.07-0.472-3.14-0.905-4.52z"/>
	<path d="m98.419 383.9c1.207 1.668 0.631 4.286 0.452 5.879-1.039-1.07-0.162-4.06-0.452-5.88z" fill="#A99A6F"/>
	<path d="m88.47 388.87c1.751 1.264-0.069 3.812 0.905 5.427-1.931-0.18-0.432-3.79-0.905-5.43z"/>
	<path d="m95.706 392.94c0.935 4.841 0.343 11.899 0.453 16.281-1.054-4.52-0.153-11-0.453-16.28z" fill="#A99A6F"/>
	<path d="m98.419 393.39c1.833 22.803 0.941 45.752 1.356 69.646 0.127 0.808-0.427 0.928-0.452 0.452-0.765-26.95-0.921-42.37-0.904-70.1z" fill="#A99A6F"/>
	<path d="m143.64 404.7c1.035 0.377 1.238 2.778 0.452 3.618-1.01-0.34-0.17-2.54-0.45-3.62z"/>
	<path d="m143.64 408.77c1.155 0.05 0.897 1.514 0.904 2.713-1.62 0.43-0.62-1.78-0.9-2.71z"/>
	<path d="m95.706 412.84c1.5 0.158 0.71 2.606 0.905 4.069-1.834 0.18-0.499-2.82-0.905-4.07z" fill="#A99A6F"/>
	<path d="m95.706 417.36c1.39-0.692 1.39 2.953 0 2.261v-2.26z" fill="#A99A6F"/>
	<path d="m95.706 424.15c1.64 0.32 0.624 3.296 0.905 4.975-0.857-1.1-0.972-2.95-0.905-4.97z" fill="#A99A6F"/>
	<path d="m154.04 429.12c1.234 6.323 0.735 14.607 0.905 23.97-2.06-6.21-0.32-16.25-0.9-23.97z" fill="#A99A6F"/>
	<path d="m96.158 431.38c1.311 2.458-0.392 7.93 0.904 10.401-0.127 1.531-0.719 2.597-0.452 4.522-1.253-1.466 0.332-9.674-0.905-12.663 0.982 0.08 0.206-1.6 0.453-2.26z" fill="#A99A6F"/>
	<path d="m96.158 447.66c1.157 0.954 0.885 3.337 0.904 5.428-1.692-0.42-0.589-3.63-0.904-5.43z" fill="#A99A6F"/>
	<path d="m154.04 453.54c1.952 0.31 0.417 4.106 0.905 5.879-1.73-0.52-0.55-3.96-0.9-5.88z" fill="#A99A6F"/>
	<path d="m96.158 454.45c1.833-0.176 0.498 2.818 0.904 4.07-1.936-0.63-0.055-3.03-0.904-4.07z" fill="#A99A6F"/>
	<path d="m96.61 460.33c1.398 5.211-0.473 9.542 0 1.357-0.543-0.6-0.176-0.72 0-1.36z" fill="#A99A6F"/>
	<path d="m146.81 468.02c-8.722 0.576-19.966 1.278-26.683 1.356-0.592 0.007-0.713-0.922-1.357-0.904 8.21-1.75 18.88-0.91 28.04-0.46z" fill="#A99A6F"/>
	<path d="m154.5 468.02c-3.074 1.085-9.662 0.105-3.166 0 1.19-0.02 2.11 0.01 3.17 0z" fill="#A99A6F"/>
	<path d="m120.58 470.28c2.718-1.051 7.383-0.155 10.854-0.453-2.71 1.05-7.38 0.15-10.85 0.45z" fill="#A99A6F"/>
	<path d="m75.807 472.54h8.592c0.652 1.006 1.136 2.181 0.905 4.07-3.474 1.004-7.766 0.136-9.497 0-0.823-1.55 0.061-2.17 0-4.07z" fill="#A99A6F"/>
	<path d="m133.24 472.54h9.497c-0.123 1.535 0.35 3.667-0.452 4.522-2.52-1.176-7.062 0.188-9.045-0.452v-4.07z" fill="#A99A6F"/>
	<path d="m104.75 500.58c-3.021-1.081-1.85-5.265-2.714-7.688-6.223-17.445-34.899-16.757-41.154 1.356-0.856 2.478 0.866 6.277-3.166 6.331-2.348-2.158-1.528-6.944-1.356-9.949 0.336-5.906 1.093-11.412 6.784-12.663 9.718-2.135 27.122 1.266 37.084 0.452 6.11 2.91 6.93 16.11 4.52 22.16z" fill="#A99A6F"/>
	<path d="m159.02 501.03c-2.211-2.555-1.543-6.439-3.166-9.95-6.67-14.426-31.248-14.05-37.085 2.714-0.671 2.927 1.261 6.97-3.165 6.783-1.697-8.772-1.929-20.422 4.975-22.16 4.298-1.082 31.77-1.875 35.728 0.453 2.827 1.662 3.71 7.716 4.07 12.662 0.22 3.06 0.94 7.24-1.36 9.51z" fill="#A99A6F"/>
	<path d="m76.711 482.94h0.904c1.766 6.134 0.971 15.185 0 17.638-3.225-3.76-0.132-12.46-0.904-17.64z" fill="#A99A6F"/>
	<path d="m75.807 483.39c-0.04 7.648-0.119 13.415-0.453 17.186-3.78-1.238 0.318-10.961-1.809-15.828-1.604 4.124 0.983 12.439-1.356 15.828-2.08-3.347-0.324-10.529-0.904-15.376 1.322-0.79 2.572-1.65 4.522-1.81z" fill="#A99A6F"/>
	<path d="m69.476 486.1c1.798 2.919 0.898 10.801 0.452 14.472-2.927-1.596-0.624-8.421-1.357-12.21-2.363 2.008 0.264 9.007-1.356 11.758-2.033-1.284-0.359-6.274-0.905-9.045-2.246 2.092-0.573 6.444-1.356 9.045-1.028-1.384 0.184-5.008-1.809-5.427 1.161-3.81 3.387-6.55 6.331-8.59z" fill="#A99A6F"/>
	<path d="m62.692 497.41c0.69 0.007 0.991 3.352-0.453 2.713-0.059-1.11-0.068-2.17 0.453-2.71z" fill="#A99A6F"/>
	<path d="m66.31 2.199c1.383 0.328 1.331-0.78 2.713-0.452 0.261 0.946 1.122 1.291 0.905 2.713-1.234 0.041-0.911-0.753-1.809 0 1.247 3.192-0.683 5.764-0.452 8.141-2.802-0.717-2.195-7.368-1.357-10.402z" fill="#A99A6F"/>
	<path d="m134.6 106.67c8.469-1.204 10.287 5.448 7.236 9.498-5.95 7.88-16.01-5.3-7.24-9.5zm5.88 3.16c0.176 2.683-1.111 5.896-5.427 6.332 3.44 4.92 10.35-4.06 5.43-6.33z" fill="#EE3224"/>
	<path d="m158.12 155.51c0.486-8.995-2.054-21.621-0.452-29.849 0.568-2.918 0.882 2.559 0.905 4.07 0.08 6.35 0.24 19.08-0.46 25.78z"/>
	<path d="m70.38 15.767v66.48c3.625 0.399 8.437-1.77 12.211-2.713 0.66-1.902 0.74-4.385 1.809-5.879 4.353-1.376 8.045-3.412 10.854-6.332 0.77-7.83 1.365-15.271 2.261-20.804 4.475-3.101 15.488-3.174 19.447 0.453 2.373 5.898 0.799 13.225 2.714 18.542 0.773 2.149 2.901 3.04 2.713 5.427 3.999 0.524 6.617 2.428 9.497 4.07 1.19 0.92 0.555 3.667 1.357 4.975 11.907 1.057 21.171 4.757 28.491 10.402 0.325 2.238 0.621 4.504 0.452 7.236 5.335 1.549 10.746-1.041 14.925 0.905 0.866 1.093 0.285 3.634 0.452 5.427 1.763 0.951 5.2 0.227 7.688 0.453 1.196-8.906-0.571-16.277 0.452-25.326 0.515-2.26-3.512-1.586-1.81-3.618-0.016-2.862 4.612-1.855 5.427-0.452-2.397 8.563-0.856 18.288-0.904 28.944 1.687 1.027 5.489-0.062 6.784 1.357 1.7 1.791 1.932 6.85 0 8.593-6.178 1.421-11.793-0.157-17.186 0.904-0.8 2.215-0.1 5.931-2.262 6.784-3.507 1.016-8.864 0.18-13.115 0.453-0.812 5.045-0.452 11.458-0.452 17.637 0 6.097-1.031 12.661 1.357 16.733 11.054 2.211 28.902-2.371 37.084 2.713-2.261 8.292-8.462 12.643-12.211 19.447 14.476 2.624 26.062 10.974 27.588 26.23 2.626 26.263-1.348 61.811-7.236 84.118 6.285 7.025 5.998 15.054 5.427 28.04-0.559 12.717-0.777 28.312-1.809 38.441-0.382 3.747-2.638 4.903-3.618 7.688-0.789 2.241 0.155 3.727-0.452 6.784-2.698 13.571-12.437 26.304-25.326 31.657-3.377 1.402-11.64 4.585-13.115 0-1.177-3.658 5.641-5.966 9.045-8.593 9.486-7.318 14.367-26.889-0.904-33.014-0.354-10.18-1.633-20.387-2.262-30.301-0.933-14.717-4.696-28.958 3.618-37.989-3.798-9.016-6.452-19.175-7.688-30.753-0.942 14.608-1.007 26.681-0.904 45.678 0.043 7.926 1.57 16.111-3.618 20.803-3.589 0.267-7.084-0.154-9.949 0.452-0.528 42.792-0.732 81.306 0 123.46 0.146 8.386 2.12 15.398-3.166 21.256h-9.045v4.07c4.585 1.125 10.092-1.518 14.021 1.809 5.428 4.598 2.559 15.657 3.617 24.874-20.438 0.499-32.341 0.349-49.295 0 0.39-12.523-2.862-31.271 18.995-26.683 1.613-7.46-8.877-2.418-12.663-4.975-4.423-2.986-2.102-26.249-2.262-36.18-0.49-30.472-0.3-80.283-0.904-107.18-4.073-1.053-10.098-0.152-14.924-0.452-1.521 45.153 0.453 87.588 0.452 129.34 0 5.23 1.289 11.809-3.166 14.924-2.326 1.292-7.638-0.402-9.95 0.904-0.623 0.583-0.447 1.965-0.452 3.166 6.107 2.791 13.556-1.546 17.186 3.166 4.083 5.301 1.664 15.705 1.809 24.421-17.074-0.125-39.352 0.346-51.557-0.452-0.735-7.89-2.292-18.039 1.809-23.517 3.728-4.979 11.597-1.601 16.733-4.07v-1.81c-0.905-2.713-6.464-0.771-9.497-1.356-7.114-5.458-4.263-15.718-4.522-23.969-1.304-41.436-0.767-81.024-1.357-120.3-1.486-0.925-4.58-0.244-6.784-0.452-6.1-4.491-3.96-15.894-4.07-23.969-0.271-19.793-1.249-35.33-0.904-56.531-2.792 13.941-3.468 29.999-8.141 42.06 12.351 14.404 1.279 48.517 2.261 69.646-4.939 6.842-10.911 13.038-9.95 22.16 0.563 5.342 4.656 11.53 9.498 14.473 2.391 1.453 6.225 1.327 7.236 3.165 0.987 1.796-0.044 4.605-1.809 6.332-20.129-0.019-31.395-15.354-33.918-34.823-0.252-1.947 0.366-4.473 0-6.331-0.328-1.666-1.858-3.197-2.261-4.976-1.477-6.511-1.425-17.352-2.261-27.587-1.282-15.692-4.349-30.856 2.261-39.798-4.26-10.979-6.406-25.76-7.688-41.154-1.24-14.891-3.294-30.707-2.261-44.32 1.249-16.459 13.122-25.109 28.492-28.04-2.748-6.9-8.15-11.146-11.306-17.638 5.062-4.458 12.883-3.09 19.447-3.166 6.83-0.079 13.742 0.925 19.899-0.452 1.186-12.234-0.131-24.291 0.452-33.466-4.332-1.246-11.625 0.47-15.376-1.356-1.126-1.286-1.175-3.648-1.356-5.879-5.22-1.263-13.323 0.358-18.542-0.905-1.484-1.852-2.019-6.816-0.452-9.045 2.189-0.977 6.124-0.208 9.045-0.452-0.143-7.217 1.757-17.747 0.452-24.421-0.491-2.513-2.364-2.451-1.809-4.522 1.222-1.687 5.064-1.753 6.332 0-2.239 6.627-1.401 20.191-0.904 28.944h4.975c1.528-1.487 0.717-5.313 2.713-6.332 3.361-0.718 9.604-0.179 14.472-0.452-1.257-7.933 3.596-13.148 10.402-14.472v-68.289c-2.796-2.722-3.474-9.668-2.261-14.924 7.672-5.929 7.952 10.27 5.427 14.486zm57.89 239.24c-4.728 6.561-9.317 13.465-13.115 20.351 5.378-6.229 9.095-14.121 15.376-19.446-0.382-1.889 0.879-2.136 0.904-3.618 22.643-30.723 45.835-60.896 67.386-92.711-23.453-0.238-43.68 0.615-68.742 0.453-0.406 9.615 0.769 20.872-0.452 28.492-0.254-6.391-0.582-17.302-0.452-28.492-1.535 0.123-3.667-0.35-4.522 0.452-0.497 8.292 1.08 13.432-0.452 18.995v-19.447h-7.688c-1.219 1.193 0.347 5.171-0.904 6.332v-6.332c-24.267 0.095-36.589 0.184-61.054 0-1.245 8.882 0.395 20.522-0.904 30.3-0.3-7.798-0.337-14.778-0.453-22.16-0.041-2.607 1.081-5.968-0.904-8.14-1.426 0.985 0.82 5.645-1.357 5.879-0.183-1.927 0.438-4.659-0.452-5.879-3.317 2.562 0.042 11.8-1.809 15.829-1.44-4.219 0.577-12.996-0.904-15.829-3.045-0.483 0.195 5.32-2.261 5.427-0.487-2.876 1.833-5.254-1.357-5.427-1.409 1.595 0.317 6.893-1.356 8.592-0.239-2.776 0.517-6.547-0.453-8.592-3.264 1.71 0.003 9.953-1.809 13.115-0.883-2.928-0.092-9.427-0.453-13.115-3.75-0.586-4.478 2.075-6.784 0-0.794 0.616 1.148 4.93-0.904 5.427v-4.975c-2.242-0.151-10.307-1.454-13.115 0.452 27.885 39.055 56.914 79.239 86.379 118.04 0.969-0.287 6.055 1.18 7.236-0.904-0.532-0.07-1.283 0.078-1.356-0.452 6.092-7.928 11.774-16.266 17.638-24.421-2.599-0.984-0.652-5.91-1.356-10.402-3.059-0.345-0.952 4.476-2.262 5.879-1.285 0.079 0.547-2.958-1.356-2.261-2.486 2.063-0.046 5.32-1.81 7.236-1.276-0.803 1.225-3.326-0.904-4.07-1.817-0.008 0.009 3.626-1.809 3.618v-2.261c-9.9 5.865-22.034 2.027-27.135-4.975-10.242-14.06-1.971-34.143 14.472-35.275 13.327-0.918 21.945 8.9 22.612 23.969-0.18 1.084 2.06-0.25 1.356 1.357-0.17 5.006 0.036 8.076 0 13.567 3.222-3.965-0.136-12.096 1.81-17.638 0.53 3.51-0.199 9.713 0 14.472 2.111 0.482 3.266-3.579 4.975-4.975-0.604-23.449-0.791-45.883 0-71.003 0.541 21.844 0.479 43.979 0.452 69.194 3.526-1.547 1.809-7.798 1.809-13.568 0-6.28-0.364-13.065 0.452-18.09 1.055 8.443 0.151 18.843 0.452 28.04 3.26-1.128 2.459-3.612 2.262-6.332-1.043-14.368 0.429-37.027 0.452-51.556 0.31 14.776 0.575 31.72 0.452 53.365 3.261-1.505 2.254-6.193 2.262-9.497 0.024-11.438-0.438-25.745 0.452-38.441 0.338 16.526 0.243 29.207 0 43.868 2.177 0.067 2.005-2.215 3.166-3.166-1.368-7.381-1.549-21.135 0-29.396v28.492c3.155-2.163 1.809-8.736 1.809-14.02 0-5.528-0.65-11.395 0.904-14.02 0.051 6.406-0.036 16.528 0 24.421 5.078-3.427-0.486-17.098 2.714-19.899 0.28 5.146-0.575 11.429 0.452 15.829 4.107-2.32-0.565-8.886 2.261-12.211 0.541 2.625-1.12 7.453 0.905 8.593 2.197-2.174-0.148-8.891 1.356-11.758 1.37 2.222-0.399 6.89 0.452 8.593 3.581-0.675 0.004-6.013 2.261-7.236 0.373 1.135-0.879 3.894 0.905 3.618 1.436-1.126-0.746-5.871 1.356-6.332 0.28 1.228-0.574 3.589 0.452 4.07 1.823-2.102 3.911-6.333 5.879-6.784-14.45 19.28-29.5 39.45-43.44 58.8zm-60.603-242.41c-0.231-2.376 1.699-4.949 0.452-8.141 0.898-0.753 0.575 0.041 1.809 0 0.217-1.423-0.644-1.768-0.905-2.713-1.383-0.328-1.33 0.78-2.713 0.452-0.838 3.034-1.445 9.685 1.357 10.402zm0.904 70.551c0.12-16.338 0.914-35.166-0.452-52.461 0.322 18.883-0.768 35.545 0.452 52.461zm33.009-36.18c2.382-1.107 6.367 1.316 8.14-0.905-3.15 0.061-6.24-1.11-8.14 0.905zm0.91 19.446c0.664-5.889 1.537-11.233-0.453-16.281 0.7 5.412-1.98 12.143 0.45 16.281zm2.71 0c0.499-4.79 1.35-11.577-0.452-14.924 0.38 5.655-0.87 11.367 0.45 14.924zm3.17 0c0.735-4.788 0.84-10.912-0.904-14.02 0.85 3.166-1.37 11.025 0.9 14.02zm2.71 0.453c1.05-4.149 0.438-9.031-0.452-12.663-0.04 5.104-0.96 7.935 0.45 12.663zm-13.113-7.236c0.235-1.405 0.988-3.152-0.453-3.166 0.27 0.937-0.558 2.971 0.453 3.166zm1.809 3.166c0.239-1.872 0.866-3.101-0.452-3.618 0.169 6.664-0.062 7.649 0.452 3.618zm-3.166 2.713c1.558-0.12 1.014-4.689 0.904-4.975-0.687 1.272-0.43 3.489-0.904 4.975zm0.452 2.261c-0.931 0.577-2.293 0.721-2.261 2.261 9.562-0.284 15.402 0.662 24.422 0.452-3.91-4.382-14.84-1.736-22.158-2.713zm11.308 3.618c-8.133-0.124-17.299-1.119-20.351 2.714 14.314-0.248 26.79 1.348 39.798 0-5.94-3.19-11.3-2.589-19.45-2.714zm12.66 4.975c-9.757-0.262-25.575-0.428-35.728-0.905-1.407 0.101-0.764 2.251-0.905 3.618 11.291 0.982 24.006 0.289 34.371 0.452 3.371 0.053 10.332 2.663 11.759-1.809-2.16-2.548-6.21-1.267-9.5-1.356zm65.13 25.782c1.996-7.826 0.076-13.908 0.904-22.16-0.096-0.507-0.502-0.704-0.904-0.904v23.064zm-27.59-11.762c-9.845-9.247-25.987-9.49-42.964-9.497-21.794-0.01-43.867-2.198-56.983 9.949-1.466 27.524 0.651 45.001-0.452 66.48 29.594-0.103 76.617 0.409 101.3-0.452-0.58-22.53 1.24-45.61-0.91-66.482zm4.07 9.045c-0.783 2.902-0.711 8.846 0 11.759h10.854c0.293-2.119-0.592-5.416 0.452-6.784 0.561 4.135 0.487 11.17 0.452 15.376-3.623-0.156-6.132 0.803-9.949 0.453-2.795 0.539 1.775 0.424 3.618 0.452 2.808 0.042 5.874 0.221 6.783-0.452 0.812-8.269 1.481-12.745 0-20.804-3.08-0.746-9.11-0.746-12.2-0.003zm-119.4 1.357c0.768 4.513 0.5 9.248 0.904 13.115 4.363 0.341 8.116-0.28 12.663 0.452 0.49-3.971 0.108-9.283 0-14.02-4.399 0.28-9.912-0.558-13.567 0.46zm-0.452 7.69c-0.61-2.302 0.723-4.281-0.905-4.975-0.066 2.03 0.049 3.87 0.905 4.98zm135.68-2.72c0.477 1.89-0.952 3.064 0 4.07 4.374 0.299 9.946-0.6 13.567 0.452-4.76 0.648-9.174-1.084-12.663 0.905h13.115c1.155-1.106 0.7-3.823 1.356-5.427-4.91-0.64-9.05 0.24-15.39 0.01zm-155.12 4.53c4.713 0.748 12.472 0.748 17.186 0v-3.166h-17.186v3.17zm170.95 0.9c1.722-0.371 1.722-3.247 0-3.618v3.62zm-166.43 0.91c2.771-0.546 7.761 1.128 9.045-0.904-2.405 1.02-7.098-0.59-9.045 0.9zm134.32 0.9c2.637 0.29 10.117 1.737 11.307-0.904-2.11 0.24-9.28-0.9-11.31 0.9zm10.85 1.36h-10.402c2.11 1.77 7.49 1.47 10.4 0zm-128.44 0.9c0.418 1.068 11.067 2.116 12.211-0.452-3.954 0.27-9-0.56-12.211 0.45zm111.26 42.51c-30.978 0-63.591 0.093-99.947 1.356 47.745-0.47 96.773 1.143 139.74-1.356-10.27-0.05-27.01 0-39.79 0zm-113.52 37.99c-4.394-4.952-7.273-11.42-12.21-15.829-12.655 0.598-27.394 10.165-28.492 25.326-1.079 14.902 0.14 29.265 1.809 45.225 1.585 15.161 3.184 32.419 8.593 42.511 3.932 7.337 14.307 12.327 21.255 5.88 3.388-3.144 5.971-12.41 7.688-19.447 3.881-15.901 4.975-32.055 4.975-48.842 0-12.86 1.866-26.875-3.166-33.467-0.611 1.596 0.801 6.458-0.453 8.593-0.637-2.45-0.805-7.5 0.001-9.94zm137.03-4.52c-2.678 3.702-6.215 6.724-7.235 10.402-1.896 6.827-1.306 19.56-1.357 28.039-0.115 19.137 1.847 37.306 6.784 52.913 3.262 10.312 8.873 25.045 22.16 19.446 5.501-2.317 8.165-12.142 9.949-20.351 4.111-18.916 5.427-35.207 5.427-55.174 0-10.637 0.923-19.626-1.356-27.587-3.378-11.797-13.729-17.064-26.23-18.994-2.71 2.68-5.09 7.09-8.14 11.3zm-112.61 40.25c-2.895-4.133-5.857-8.751-9.045-13.115-3.066-4.198-6.395-8.775-9.949-11.306 1.359 33.132-0.352 56.738 0.904 89.997 0.314 8.324-1.168 25.116 3.618 28.492 1.527-0.184-1.204-1.754 0.904-1.357 6.932-0.16 12.862-0.517 19.447-0.452 0.476-0.024 0.356-0.579-0.452-0.452-6.634-0.3-14.471 0.602-20.351-0.452 4.323-0.036 9.528-0.232 15.829-0.452 22.759-0.793 63.275 0.63 98.59 0 0.198-42.088 0.461-74.842 0-112.16-10.298 9.751-16.734 23.365-26.23 33.919 0.073 6.262 0.628 11.041-0.452 18.542-0.246-5.181 0.527-11.381-0.452-15.829-3.387 1.154-1.329 5.529-2.261 7.236-1.307-0.201 0.401-3.417-0.905-3.618-0.709 1.117-2.741 3.265-2.261 4.07 1.003-2.793 0.602 5.902 0 7.236-0.255-2.308 0.69-5.816-0.904-6.784-2.954 3.153-6.334 8.993-10.402 14.472-5.093 6.858-10.677 17.076-18.09 11.307-11.095-15.89-22.818-33.562-34.823-47.034 3.559 4.883 7.414 9.47 10.401 14.924-3.62-5.496-9.563-10.841-11.306-16.733-0.041 2.09-1.045-0.55-1.82-0.47zm-7.688-11.76c3.071 3.863 5.59 8.279 9.045 11.758-2.656-3.98-5.742-9.93-9.045-11.76zm-4.523-6.33c1.648 1.667 2.29 4.343 4.522 5.427-1.119-1.91-3.088-5.35-4.522-5.43zm113.52-3.62c-0.201-0.854 0.614-2.726-0.905-2.261-0.94 0.9-0.01 1.93 0.91 2.26zm0 28.04c0.657-3.142 0.597-7.542-0.452-8.593 0.29 2.72-0.6 6.62 0.45 8.59zm0.45 8.59c-0.982-2.51 1.035-6.455-0.904-7.688 0.52 2.34-1.11 6.84 0.9 7.69zm0 24.88c-0.432-2.384 0.461-4.906-0.904-5.428 0.14 1.96-0.52 4.74 0.9 5.43zm0 11.3c-0.034-1.057 0.366-4.841-0.904-3.166 0.57 0.15-0.63 2.87 0.9 3.17zm-139.3 20.35h13.568c0.433-3.659-1.533-8.675-4.07-10.854-1.847 4.94-5.18 8.39-9.498 10.85zm139.3-5.88c0.016-1.975 0.166-4.086-0.904-4.975 0.45 1.52-1.01 4.93 0.9 4.98zm32.11 5.88c3.94 0.462 8.975 1.066 12.211-0.452-0.219-3.603-1.978-7.819-4.522-10.402-1.4 4.78-3.96 8.4-7.69 10.85zm-193.11-0.45c3.253 0.3 8.263 1.279 11.306-0.453-3.931-1.646-5.433-5.722-8.141-8.592-1.758 2.31-3.136 5-3.165 9.04zm168.23 0.91c3.779-0.359 6.769-0.021 12.211 0-3.375-2.806-5.191-7.17-8.593-9.949-1.48 3.04-3.62 5.42-3.62 9.95zm-7.23 18.99c-0.569-7.704 1.363-16.246-0.904-21.708 0.56 6.97-1.17 16.24 0.9 21.71zm-161-16.73c1.744 19.242 2.016 39.005 4.975 54.723 5.152-0.039 12.082-1.176 17.186-1.81-0.067-16.718 2.999-37.632 1.356-54.27-1.03 4.85 0.016 11.774-1.356 16.281-0.272-5.842 0.445-12.919 0-16.281h-22.16c-0.001 0.45-0.001 0.91-0.001 1.36zm23.516 43.87c1.66-14.999 1.538-28.986 2.713-44.32-0.095-0.507-0.502-0.704-0.904-0.904-0.776 13.7-2.034 30.38-1.809 45.22zm5.427 1.81c-0.147 2.801-1.886 6.957 0.452 8.593 5.412-0.793 3.36-8.282 3.618-12.211 0.885-13.516 3.284-30.204 2.713-43.416h-3.618c-1.724 14.45-2.397 32.4-3.165 47.04zm138.84-46.59c1.083 16.9 2.488 38.224 4.07 54.722 6.229 1.926 9.91-1.857 17.638-0.904 0.502-8.453 0.005-17.659 1.356-27.135-0.179 5.408 0.196 9.924 0 14.02-0.156 3.265-1.955 10.774 0.453 13.115 1.717-9.375 0.254-19.15 1.809-28.039 0.783 10.122-1.968 19.021 0.452 28.039 1.464-18.661 1.26-36.93 1.81-54.27-2.558 2.59-1.17 7.296-1.357 11.307-0.214 4.587-0.337 9.831-1.356 12.21-0.175-7.43 1.598-17.673 0-23.517-2.625 7.022-0.023 17.066-2.262 24.874-0.078-8.521 0.789-16.096 0.452-24.874-7.54 0.28-16.26-0.6-23.06 0.44zm31.66 41.61c-0.219 4.992-0.998 10.474 0.905 13.568 4.408-1.112 3.504-7.02 3.617-10.854 0.452-15.199 1.769-31.618 1.81-44.772h-3.166c-2.15 11.13-2.58 28.87-3.16 42.05zm-3.62-9.04c2.108-10.985 1.005-22.278 1.809-32.109-0.1-0.353-0.379-0.525-0.904-0.452-0.35 11.92-0.58 22.54-0.91 32.56zm-169.59-5.88c0.984-7.004 0.397-10.705 1.357-17.638-1.612 4.42-1.656 12.81-1.357 17.64zm45.677-8.14c-1.631-0.185-0.62 0.826 0.452 0.452h8.593c23.75-0.459 45.355 0.945 62.863-0.904-28.32-0.16-50.02 0.17-71.905 0.45zm80.955-0.46c-2.419 0.295-6.021-0.594-7.688 0.452 0.86 0.28 6.32 1.28 7.69-0.45zm-82.312 0.46c-1.375 0.284-3.895-0.579-4.522 0.452 1.374-0.29 3.895 0.58 4.522-0.45zm40.252 4.97c-0.828 11.094-0.452 24.596-0.452 36.181 0 37.93 0.276 69.681 0.904 102.66h28.492c-0.996-43.223 0.053-91.843-1.809-139.29-2.482 1.773-1.357 5.555-1.357 8.141 0 21.619 0.386 46.283-0.452 65.124-0.232-27.768 0.26-52.545-0.452-73.265-10.353-0.762-15.86 0.375-23.517-0.452-0.53 0.21-1.02 0.48-1.35 0.9zm-57.437-0.45c-0.568 0.186-0.924 0.583-0.905 1.357 1.042 44.795-0.29 97.338 2.261 137.94 9.777 0.109 19.552-0.058 30.301 0-0.401-52.675-0.904-86.381-0.904-130.25 0-2.245 1.491-6.81-1.809-8.14-2.401 6.945 0.293 18.985-1.357 26.683v-26.683c-7.758-1.75-18.436-0.57-27.587-0.91zm87.287 139.29c2.465-1.233 1.334-4.621 1.356-6.784 0.45-42.995-1.667-94.552-0.452-131.15-0.646-0.108-0.763-0.745-1.356-0.905-1.09 48.6-0.17 91.8 0.45 138.83zm-55.63-136.13c-0.356 51.383 0.64 97.553 0.905 137.03-10.101 0.301-21.406-0.603-30.753 0.452 9.6 1.011 24.798 0.184 36.632 0.452 0.11-2.221-4.378 0.157-4.975-1.356 1.318-44.374-0.577-91.367-0.904-137.48-0.1-0.353-0.379-0.526-0.905-0.452v1.36zm59.24 135.68c-0.233-42.205 0.2-94.561-1.356-136.58 0.27 52.82-0.83 90.44 1.36 136.58zm1.36-134.32c1.39 0.692 1.39-2.953 0-2.261v2.26zm-54.268 15.83c-0.117-5.792 1.09-11.09-0.904-16.281 0.508 5.22-1.077 12.53 0.904 16.28zm-65.124-9.95c-0.196-1.481 0.458-6.16-0.452-5.428 0.579 2.16-1.093 5.1 0.452 5.43zm120.75 87.74c-0.33-32.578 0.443-61.113-0.905-91.354-0.42 22.32-0.85 63.68 0.9 91.35zm-58.794-85.03c0.502-1.223 0.351-2.585-0.452-3.618 0.275 1.09-0.568 3.29 0.452 3.62zm108.08 1.36c-0.167-1.792 1.06-2.765-0.452-3.618 0.28 1.08-0.57 3.28 0.45 3.62zm-104.92 20.35c-0.139-3.335 0.766-10.433-0.452-13.115 0.005 3.09-0.859 8.7 0.452 13.12zm-67.838-8.59c-0.123-0.968 0.35-4.824-0.452-3.618 0.123 0.97-0.35 4.83 0.452 3.62zm65.124 7.23c-0.512-2.052 1.08-6.205-0.905-6.784 0.392 2.17-0.904 6.03 0.905 6.78zm89.092 0.46c9.429 13.087 0.458 28.12-8.141 33.919-1.94 1.308-5.946 2.514-5.88 4.522 0.192 5.784 13.32-0.045 16.281-1.81 5.649-3.365 10.835-9.141 14.02-14.472 2.483-4.157 4.473-9.277 4.07-13.115-2.399 10.264-8.772 18.965-15.828 23.064 8.146-7.531 13.678-17.677 16.28-30.753 1.077 2.488-0.717 5.078 0.452 7.236 0.381-2.785 0.853-5.479 0.905-8.593-7.44 0.12-16.04-0.19-22.15 0zm-89.092 4.52c0.008-1.983 0.017-4.235-0.453-4.522-0.411 0.64-1.285 4.63 0.453 4.52zm-81.857-4.07c-0.025 0.578-0.58 0.626-0.453 1.356-0.11 16.556 6.989 31.631 18.09 37.537 2.966 1.578 13.149 5.511 15.376-0.452-10.724-4.84-21.46-14.74-17.184-30.31-1.64 3.335-1.524 8.426-2.261 12.663-1.778-8.883 2.473-15.603 5.879-20.804h-19.447zm84.571 6.33c-0.123-0.968 0.35-4.824-0.452-3.617 0.122 0.97-0.351 4.83 0.452 3.62zm-3.166 4.07c0.178-1.197 1.056-3.622-0.452-4.07 0.28 1.23-0.575 3.59 0.452 4.07zm3.166 1.36c-0.123-0.969 0.35-4.825-0.452-3.618 0.122 0.97-0.351 4.82 0.452 3.62zm-2.714 9.04c-0.33-1.027 0.814-3.528-0.905-3.166-0.072 1.44-0.015 2.74 0.905 3.17zm2.714 6.79c0.179-1.593 0.755-4.211-0.452-5.879 0.289 1.82-0.588 4.81 0.452 5.88zm-2.714 19.44c-0.109-4.382 0.482-11.44-0.453-16.281 0.301 5.28-0.6 11.76 0.453 16.28zm3.166 54.27c0.025 0.476 0.58 0.355 0.452-0.452-0.416-23.895 0.477-46.844-1.356-69.646-0.018 27.73 0.138 43.15 0.904 70.1zm-2.714-46.58c-0.195-1.463 0.595-3.911-0.905-4.069 0.407 1.25-0.928 4.25 0.905 4.07zm-0.904 2.71c1.39 0.692 1.39-2.953 0-2.261v2.26zm0.904 9.5c-0.281-1.679 0.735-4.654-0.905-4.975-0.066 2.03 0.049 3.88 0.905 4.98zm58.34 23.97c-0.17-9.362 0.329-17.646-0.905-23.97 0.58 7.72-1.16 17.76 0.91 23.97zm-59.244-19.45c1.237 2.989-0.348 11.197 0.905 12.663-0.267-1.926 0.325-2.991 0.452-4.522-1.296-2.472 0.406-7.943-0.904-10.401-0.248 0.66 0.528 2.34-0.453 2.26zm1.356 19.45c-0.02-2.091 0.252-4.474-0.904-5.428 0.315 1.8-0.788 5.01 0.904 5.43zm57.888 6.33c-0.488-1.772 1.047-5.569-0.905-5.879 0.35 1.92-0.83 5.36 0.91 5.88zm-57.888-0.9c-0.406-1.252 0.929-4.246-0.904-4.07 0.849 1.04-1.032 3.44 0.904 4.07zm-0.452 3.16c-0.473 8.185 1.398 3.854 0-1.357-0.176 0.65-0.543 0.77 0 1.36zm22.16 6.79c0.645-0.018 0.766 0.911 1.357 0.904 6.717-0.078 17.961-0.78 26.683-1.356-9.16-0.44-19.83-1.28-28.04 0.46zm32.56-0.45c-6.496 0.105 0.092 1.085 3.166 0-1.06 0.01-1.98-0.02-3.17 0zm-19.9 1.8c-3.471 0.298-8.136-0.598-10.854 0.453 3.47-0.29 8.14 0.61 10.85-0.45zm-55.623 6.79c1.731 0.136 6.023 1.004 9.497 0 0.231-1.89-0.252-3.064-0.905-4.07h-8.592c0.061 1.9-0.823 2.52 0 4.07zm57.433 0c1.982 0.64 6.525-0.724 9.045 0.452 0.802-0.855 0.329-2.987 0.452-4.522h-9.497c0.01 1.35 0.01 2.71 0.01 4.07zm-33.01 1.81c-9.963 0.813-27.366-2.587-37.084-0.452-5.69 1.251-6.447 6.757-6.784 12.663-0.171 3.005-0.992 7.791 1.356 9.949 4.032-0.054 2.31-3.854 3.166-6.331 6.255-18.113 34.932-18.802 41.154-1.356 0.864 2.423-0.307 6.606 2.714 7.688 2.41-6.05 1.59-19.25-4.52-22.16zm60.15 13.11c-0.36-4.946-1.243-11-4.07-12.662-3.958-2.328-31.43-1.535-35.728-0.453-6.903 1.738-6.672 13.388-4.975 22.16 4.426 0.187 2.494-3.856 3.165-6.783 5.837-16.764 30.415-17.14 37.085-2.714 1.623 3.511 0.955 7.396 3.166 9.95 2.31-2.28 1.59-6.46 1.37-9.51zm-75.076 9.05h0.904c1.035-2.81 0.128-8.149 0.905-9.949 1.812 3.457-1.318 8.119 0.904 9.949h0.904c1.342-1.521-0.438-6.166 0.905-7.688v7.688c3.083-0.489 8.26 0.527 11.306 0-0.121-11.276-8.875-19.569-21.708-18.09 1.017 7.499-2.078 14.308 0.905 18.09 1.881-2.518-0.425-10.709 1.809-14.924 0.282 4.157-1.732 10.079 0.453 14.924 3.09-1.38 0.248-9.731 1.809-11.306 1.734 2.33-1.522 8.7 0.906 11.31zm48.846-17.64c0.814 5.668-1.686 14.65 1.356 18.091 2.605-3.274-0.812-12.572 1.81-15.829-0.287 3.533-0.048 7.137 0 10.854 0.018 1.421-1.891 4.364 0.904 4.976 2.136-3.161 0.471-7.349 1.809-11.307 0.508 3.563-1.073 9.214 0.904 11.307 2.17-1.298-0.124-7.06 1.357-9.046 1.529 2.766-2.19 8.018 1.809 9.046 1.683-0.685-0.005-4.04 1.357-5.88v5.427c2.099 0.324 7.311 0.966 10.401 0-0.09-12.64-9.27-20.3-21.71-17.64zm-56.534 17.64c0.971-2.453 1.766-11.504 0-17.638h-0.904c0.771 5.18-2.322 13.88 0.904 17.64zm-6.331-15.38c0.58 4.847-1.176 12.029 0.904 15.376 2.34-3.389-0.248-11.704 1.356-15.828 2.127 4.867-1.971 14.59 1.809 15.828 0.334-3.771 0.413-9.537 0.453-17.186-1.95 0.16-3.2 1.02-4.522 1.81zm49.295 8.59c2.466 1.022-0.592 5.643 2.261 6.783 0.297-3.02-0.597-7.229 0.453-9.497 1.604 2.014-0.985 8.222 1.356 9.497 2.253-1.333-0.597-9.745 1.809-12.21 0.331 3.519-2.156 10.357 0.904 12.21 1.209-3.515-0.554-10.837 0.905-14.02 0.988 4.687-1.142 10.506 0.904 14.02h0.904c1.353-4.074-0.448-11.302 0.904-15.376 2.027 4.238-1.782 14.328 1.81 15.829 1.112-7.242 0.231-11.541 0.904-17.639-6.95 0.88-10.03 5.64-13.09 10.41zm-57.436 0.91c1.993 0.419 0.781 4.043 1.809 5.427 0.784-2.601-0.89-6.953 1.356-9.045 0.546 2.771-1.128 7.761 0.905 9.045 1.621-2.751-1.007-9.75 1.356-11.758 0.733 3.789-1.57 10.614 1.357 12.21 0.446-3.671 1.346-11.553-0.452-14.472-2.943 2.04-5.169 4.78-6.331 8.6zm-0.905 5.42c1.444 0.639 1.143-2.706 0.453-2.713-0.521 0.54-0.512 1.6-0.453 2.71zm62.411-257.78c8.252-12.45-0.372-28.618-13.115-30.301-20.737-2.738-30.133 23.485-14.924 35.275 0.071-0.532-0.078-1.284 0.452-1.356 9.666 8.664 27.119 1.787 28.944-9.498 0.94 3.07-1.96 4.66-1.36 5.88zm4.07 10.4c2.427-2.136 1.743-12.071 0.452-14.924-0.97 4.16-0.21 10.04-0.45 14.92zm-9.5-4.52c1.859-1.608 3.939-2.995 4.975-5.427-1.63 1.55-4.62 4.13-4.98 5.43zm-6.78 3.17c-0.076-0.611 2.3-0.904 0.904-1.357-2.58 1.12-7.46 1.33-0.9 1.36z"/>
	<path d="m194.75 163.65c-3.82 7.487-11.166 15.366-16.281 23.065 3.83-7.47 11.23-15.3 16.28-23.07z"/>
	<path d="m177.11 187.17c0.636 1.609-3.349 6.25-5.428 8.141 1.69-2.83 4.09-4.96 5.43-8.14z"/>
	<path d="m187.51 179.93c12.502 1.93 22.853 7.197 26.23 18.994 2.279 7.961 1.356 16.95 1.356 27.587 0 19.967-1.315 36.258-5.427 55.174-1.784 8.209-4.448 18.033-9.949 20.351-13.287 5.599-18.898-9.135-22.16-19.446-4.938-15.607-6.899-33.776-6.784-52.913 0.052-8.479-0.538-21.212 1.357-28.039 1.021-3.678 4.558-6.7 7.235-10.402 3.04-4.2 5.42-8.61 8.13-11.3zm13.57 12.67c5.911 13.978 3.513 34.868 2.714 52.461-0.837 18.411-2.908 36.548-5.428 52.46 1.855-1.78 0.875-0.648 3.166 0 7.394-23.102 9.346-58.834 7.688-84.118-0.733 3.572 1.432 9.5-0.904 10.402 0.169-4.675 0.535-6.712 0-11.307 0.986-0.288 1.438 1.282 1.356-0.452-0.072-5.958-0.032-12.028-2.714-15.376 0.906 3.769 3.039 10.103 1.357 13.567-0.368-7.471-1.684-13.995-5.427-18.09 2.444 4.06 3.364 9.276 2.713 14.924-0.43-4.41-0.96-11.78-4.53-14.46zm1.81 42.96c0.461-9.25 1.084-20.852 0.452-30.753-0.185-2.882-0.12-6.64-2.262-8.593 3.31 10.29 1.04 30.69 1.81 39.34zm-2.71 1.81c2.271-10.413 1.19-24.83 0.904-36.18-0.1-0.352-0.379-0.526-0.904-0.452 0.82 11.19 0.64 26.83 0 36.63zm2.71 7.23c0.102-1.992 1.2-4.193 0-8.141 0.595 1.956-0.544 4.65-0.453 3.618-1.124 12.656-1.557 30.949-3.617 43.416 0.077 0.677-0.162 1.669 0.452 1.81 1.59-12.15 3.09-30.34 3.62-40.71zm-4.07 14.93c1.826-5.013 2.181-16.135 1.356-20.804-0.03 7.36-0.78 14-1.36 20.8zm-1.36 33.01v-3.618c-7.14-7.08-7.92 9.72 0 3.62z" fill="#A99A6F"/>
	<path d="m201.08 196.21c2.142 1.953 2.077 5.711 2.262 8.593 0.632 9.901 0.009 21.503-0.452 30.753-0.77-8.64 1.5-29.04-1.81-39.34z"/>
	<path d="m68.571 231.94c1.743 5.892 7.686 11.237 11.306 16.733-2.987-5.455-6.842-10.042-10.401-14.924 12.004 13.473 23.728 31.144 34.823 47.034 7.413 5.77 12.997-4.448 18.09-11.307 4.068-5.479 7.448-11.319 10.402-14.472 1.595 0.968 0.649 4.476 0.904 6.784 0.602-1.334 1.003-10.03 0-7.236-0.48-0.805 1.552-2.953 2.261-4.07 1.307 0.201-0.401 3.417 0.905 3.618 0.932-1.707-1.126-6.082 2.261-7.236 0.979 4.447 0.206 10.648 0.452 15.829 1.08-7.501 0.525-12.28 0.452-18.542 9.496-10.554 15.933-24.167 26.23-33.919 0.461 37.315 0.198 70.07 0 112.16-35.314 0.63-75.831-0.793-98.59 0-6.3 0.22-11.506 0.416-15.829 0.452 5.88 1.054 13.717 0.152 20.351 0.452 0.808-0.127 0.928 0.428 0.452 0.452-6.584-0.064-12.515 0.292-19.447 0.452-2.108-0.396 0.623 1.174-0.904 1.357-4.786-3.376-3.304-20.168-3.618-28.492-1.256-33.259 0.455-56.865-0.904-89.997 3.555 2.531 6.883 7.108 9.949 11.306 3.188 4.364 6.15 8.982 9.045 13.115 0.782-0.07 1.786 2.57 1.816 0.46zm75.069 26.23c-1.061-4.852 0.899-9.927-1.356-16.281 1.34 3.09-0.82 12.64 1.36 16.28zm20.81-39.8h0.904v-3.618h-0.904v3.62zm-2.26 27.59c2.102-7.999 0.309-19.893 0.904-29.396-0.095-0.507-0.501-0.704-0.904-0.904 0.04 10.98 0.02 19.25 0 30.3zm-2.27 3.17v7.236c-0.374 1.072 0.638 2.083 0.452 0.452-0.208-14.067 0.635-24.297-0.452-37.989-0.1 8.82 0.05 19.5 0 30.31zm4.98-22.61c0.399-3.101 0.01-4.122 0.452-6.784-1.43 0.77-1.04 4.72-0.45 6.78zm-7.24 23.96c0.498-9.597 0.364-17.071-0.452-28.04-0.31 8.27-0.3 17.75 0.45 28.04zm-3.16-14.02c1.476-1.983 1.337-7.32 0-9.045 0 3.99 0.2 5.36 0 9.04zm-2.26 13.57c0.431-5.148 1.175-17.22-0.452-20.351 0.29 6.63-0.61 14.47 0.45 20.35zm-3.62-7.23h0.904v-7.236c-1.99 0.72-0.38 5.04-0.9 7.24zm16.73-4.53c-0.273-0.932 0.729-3.142-0.904-2.713 0.27 0.93-0.73 3.14 0.9 2.71zm-9.95 2.72c-0.406-1.251 0.929-4.246-0.904-4.07 0.4 1.25-0.93 4.24 0.9 4.07zm9.05 37.53c1.4-10.08 1.483-28.771 0-39.798-0.15 14.89 0.31 27.79 0 39.8zm-9.05-33.92c-0.273-0.932 0.729-3.142-0.904-2.713 0 1.2-0.25 2.66 0.9 2.71zm-9.04 5.43c-0.294-2.269 0.593-5.718-0.452-7.236-0.42 2.47-0.33 4.27 0.45 7.24zm3.16-2.71c-0.194-1.463 0.596-3.912-0.904-4.07 0.4 1.25-0.93 4.24 0.9 4.07zm5.43 9.04c0.452-3.6 1.178-9.133-0.452-11.306 0.3 3.63-0.6 8.44 0.45 11.31zm8.14 2.26c-0.568-3.803 1.16-9.903-0.904-12.21 0.51 3.86-1.09 9.84 0.9 12.21zm-17.18-4.07c0.747-0.343 0.747-3.727 0-4.07-0.68 0.73 0.39 2.27 0 4.07zm6.78 2.72c-0.95-2.327 0.821-5.366-0.904-6.784 0.51 2.05-1.09 6.2 0.9 6.78zm5.43-0.45c-0.892-0.785 0.058-5.759-0.904-4.975 0.45 1.5-1.01 4.92 0.9 4.98zm-68.293 4.97c-2.678-2.146-3.584-6.064-6.332-8.141 1.485 3.04 4.132 7.32 6.332 8.14zm68.293 5.43c-0.875-2.729 0.677-6.648-0.904-9.498 0.45 2.72-1.01 9.74 0.9 9.5zm2.26-6.34c-0.261-0.795 0.547-2.657-0.452-2.713-0.63 0.58-0.79 2.71 0.45 2.71zm-4.98 9.95c-0.508-3.562 1.073-9.213-0.904-11.306 0.56 3.52-1.16 9.3 0.9 11.31zm6.79 17.64c1.441-5.939 1.552-21.551 0-28.943 0.41 9.08-0.19 17.35 0 28.94zm-1.81-19.44c-0.294-2.269 0.593-5.718-0.452-7.236-0.09 1.48-0.47 6.6 0.45 7.24zm-37.99 2.26c1.455-2.812 6.051-7.155 5.428-9.045-1.07 3.46-5.35 6.11-5.43 9.05zm11.76-1.81c0.051-2.263 0.438-6.207-0.452-6.784 0.29 2.11-0.6 5.41 0.45 6.78zm18.54 7.23c-0.563-3.507 1.153-9.294-0.904-11.307 0.7 4.07-1.13 8.27 0.9 11.31zm7.69-1.81c-0.167-1.216 0.414-5.505-0.452-4.522 0.16 1.22-0.42 5.51 0.45 4.52zm-4.98 9.96c-0.646-4.634 1.01-9.421-0.904-12.211 0.57 3.8-1.16 9.9 0.9 12.21zm2.26-9.05c0.319-1.12 0.699-2.69-0.452-3.166 0.27 0.94-0.56 2.98 0.45 3.17zm-45.67 8.14c2.724-2.254 6.109-6.247 6.783-9.045-1.47 3.52-5.99 6.37-6.78 9.05zm52.91 1.36c0.469-1.943 0.318-4.75-0.452-5.428 0.29 1.67-0.59 4.5 0.45 5.43zm-4.52 7.69c-0.272-3.652 0.562-10.807-0.452-12.21 0.25 4.49-0.86 9.41 0.45 12.21zm4.52 6.33c0.191-1.555 0.455-2.726-0.452-4.07 0.28 1.22-0.58 3.58 0.45 4.07zm-2.26 1.35c-0.294-0.966 1.188-4.338-0.452-4.975 0.28 1.53-0.59 4.21 0.45 4.98zm2.26 9.05c0.153-1.995 0.898-5.724-0.452-7.688 0.29 2.42-0.6 6.02 0.45 7.69z" fill="#A99A6F"/>
	<path d="m68.119 231.49c-3.455-3.479-5.974-7.895-9.045-11.758 3.303 1.83 6.389 7.78 9.045 11.76z" fill="#A99A6F"/>
	<path d="m59.074 218.83c-2.232-1.084-2.874-3.759-4.522-5.427 1.433 0.08 3.402 3.52 4.522 5.43z" fill="#A99A6F"/>
	<path d="m126.01 236.46c-1.825 11.285-19.278 18.161-28.944 9.498-0.53 0.073-0.381 0.824-0.452 1.356-15.208-11.79-5.813-38.014 14.924-35.275 12.743 1.683 21.367 17.851 13.115 30.301-0.61-1.22 2.29-2.81 1.35-5.88zm-14.02 0.91c4.368-4.864 0.132-12.641-5.879-10.854-5.091 1.513-3.648 9.381 0.905 11.306 1.567 0.332 4.289-0.494 4.522 0-2.809 2.33-6.036-0.255-8.593-0.904 0.758 1.467 1.155 1.459-0.452 2.261 3.212 3.081 12.341 2.392 13.115-2.261-1.779 1.98-7.012 4.854-10.402 2.261 3.936 1.492 9.646-1.072 9.044-4.07-0.59 0.92-0.73 2.28-2.27 2.25zm-15.38 5.43c5.848 11.601 29.207 3.767 26.683-7.236-0.55 12.2-19.41 15.91-26.68 7.24zm9.95 0c-2.573-0.357-4.264-3.259-5.879-1.809 4.637 4.979 17.706 2.371 17.185-4.07-1.85 3.78-6.09 6.6-11.3 5.88zm3.16 2.71c-4.468 0.338-7.479-2.229-10.854-2.713 4.742 5.294 16.659 3.996 20.352-1.356-0.052-0.552-0.136-1.071-0.905-0.905-1.56 2.65-5.34 4.72-8.6 4.97z" fill="#A99A6F"/>
	<path d="m165.35 219.73c-0.442 2.662-0.053 3.683-0.452 6.784-0.59-2.05-0.98-6 0.45-6.78z"/>
	<path d="m114.25 235.11c0.602 2.998-5.109 5.562-9.044 4.07 3.39 2.593 8.623-0.281 10.402-2.261-0.774 4.652-9.903 5.342-13.115 2.261 1.607-0.802 1.21-0.794 0.452-2.261 2.557 0.649 5.784 3.234 8.593 0.904-0.233-0.494-2.955 0.332-4.522 0-4.553-1.925-5.996-9.793-0.905-11.306 6.011-1.787 10.248 5.99 5.879 10.854 1.53 0.04 1.67-1.32 2.25-2.25zm-7.69 0c1.348-1.631 4.411-3.056 3.166-5.879 1.125-0.07 1.4 0.71 2.262 0.904-2.69-7.35-12.571 2.38-5.43 4.98z"/>
	<path d="m199.27 285.31c-0.614-0.141-0.375-1.133-0.452-1.81 2.061-12.467 2.493-30.76 3.617-43.416-0.091 1.032 1.048-1.663 0.453-3.618 1.2 3.948 0.102 6.149 0 8.141-0.53 10.37-2.03 28.56-3.62 40.71z"/>
	<path d="m164.45 238.72c1.483 11.026 1.4 29.718 0 39.798 0.31-12.01-0.15-24.91 0-39.8z"/>
	<path d="m124.2 242.8c-1.035 2.433-3.115 3.819-4.975 5.427 0.36-1.31 3.35-3.89 4.98-5.43z" fill="#A99A6F"/>
	<path d="m113.34 250.03c1.396 0.453-0.98 0.746-0.904 1.357-6.56-0.03-1.68-0.24 0.9-1.36z" fill="#A99A6F"/>
	<path d="m83.495 253.65c2.748 2.076 3.654 5.994 6.332 8.141-2.2-0.82-4.847-5.1-6.332-8.14z"/>
	<path d="m127.82 262.24c0.623 1.891-3.973 6.233-5.428 9.045 0.08-2.93 4.36-5.58 5.43-9.04z"/>
	<path d="m118.77 274.9c-0.674 2.798-4.06 6.791-6.783 9.045 0.79-2.67 5.31-5.52 6.78-9.04z"/>
	<path d="m35.104 313.8c-0.96 6.933-0.373 10.634-1.357 17.638-0.298-4.83-0.254-13.22 1.357-17.64z" fill="#A99A6F"/>
	<path d="m95.706 361.74c0.47 0.287 0.461 2.539 0.453 4.522-1.739 0.11-0.865-3.88-0.453-4.52z" fill="#A99A6F"/>
	<path d="m133.7 483.39c-0.673 6.098 0.208 10.396-0.904 17.639-3.592-1.501 0.218-11.591-1.81-15.829-1.353 4.074 0.448 11.302-0.904 15.376h-0.904c-2.046-3.514 0.084-9.333-0.904-14.02-1.459 3.183 0.304 10.505-0.905 14.02-3.061-1.853-0.573-8.691-0.904-12.21-2.405 2.465 0.444 10.877-1.809 12.21-2.342-1.275 0.247-7.483-1.356-9.497-1.05 2.268-0.156 6.478-0.453 9.497-2.853-1.141 0.205-5.761-2.261-6.783 3.04-4.78 6.12-9.54 13.1-10.41z" fill="#A99A6F"/>
	<path d="m76.259 89.483c23.599-0.044 45.318 1.914 68.289 0.904 4.005-0.176 8.667-1.916 12.211 0.905-10.595 2.06-28.502 0.337-42.059 0.904 7.388 1.054 16.732 0.151 24.873 0.452-7.276 1.857-15.014 0.167-23.969 0.452 1.533 9.793 0.049 25.062 0.904 37.537 6.838 0.194 10.28-0.262 15.376 0.453 0.527 4.641 1.24 13.267-0.452 17.185-11.241 0.097-29.677-0.069-43.868 0-1.476-4.093 0.486-11.97-0.905-17.185 4.486-0.764 9.873 0.911 14.924-0.905 0.814-10.957-1.06-23.204 0-32.562 0.188-1.664-0.08-3 1.357-4.07-14.476-0.871-29.328 0.041-43.416 0-1.128-4.239 6.954-2.55 3.618-4.975 2.898-0.417 7.581 0.948 9.045-0.904 25.333 2.103 54.565 0.307 81.404 0.904 2.617-0.242 1.567 0.808-0.452 0.452-24.45 0.121-52.75-0.244-76.881 0.438zm29.401 2.714c-1.97 0.292-5.112-0.59-6.332 0.452 1.962-0.292 5.112 0.59 6.332-0.452zm-4.08 39.803c-4.292 0.532-10.757-1.109-13.567 0.904 3.327 0.784 6.888-0.284 11.306 0.905h-9.497c0.496 3.273 0.523 7.014 0.452 10.854h37.537c-0.589-2.879-0.468-6.467-0.453-9.95-2.455-2.067-9.102 0.058-12.21-1.356 3.523-1.602 11.249 0.998 14.02-1.357h-13.567c-1.603-0.357-1.136-2.784-2.714-3.166-1.032 2.711 1.847 3.856 0.904 4.975-1-0.357-1.132-1.582-1.809-2.261 0.663-10.472-1.056-26.889 0.904-36.18-3.798 0.181-7.085-0.15-10.401-0.452 0.19 12.302 0.85 22.932-0.9 37.112zm-4.97 14.01c11.379-0.359 18.465 1.172 29.396 0-8.46-0.75-22.45-0.75-29.4 0z"/>
	<path d="m174.85 99.433c1.481 8.059 0.812 12.535 0 20.804-0.909 0.673-3.976 0.494-6.783 0.452-1.843-0.028-6.413 0.086-3.618-0.452 3.817 0.35 6.326-0.608 9.949-0.453 0.035-4.206 0.108-11.241-0.452-15.376-1.044 1.368-0.159 4.665-0.452 6.784h-10.854c-0.711-2.913-0.783-8.857 0-11.759 3.08-0.741 9.11-0.741 12.2 0.002z" fill="#A99A6F"/>
	<path d="m86.661 112.1c-1.027-0.33-1.353-1.361-1.809-2.261-0.822 0.535-0.355 2.358-0.905 3.166-2.285 2.382-6.834 0.203-8.593 1.357-4.413-9.32 12.489-12.29 11.307-2.27z" fill="#EE3224"/>
	<path d="m81.234 119.78c-1.504-2.252-2.708-0.885-4.07-1.809-3.463-2.349-4.905-8.322-1.809-11.759 5.296-5.879 16.252 1.278 11.306 9.498-1.253 2.09-3.99 1.42-5.427 4.07zm-5.88-5.42c1.759-1.154 6.308 1.025 8.593-1.357 0.549-0.808 0.083-2.631 0.905-3.166 0.456 0.9 0.782 1.932 1.809 2.261 1.182-10.01-15.72-7.04-11.307 2.27z"/>
	<path d="m159.47 156.87c-24.687 0.861-71.71 0.35-101.3 0.452 1.103-21.479-1.014-38.956 0.452-66.48 13.116-12.147 35.189-9.959 56.983-9.949 16.977 0.007 33.119 0.25 42.964 9.497 2.16 20.872 0.34 43.952 0.91 66.482zm-6.33-67.839c2.02 0.355 3.069-0.694 0.452-0.452-26.839-0.597-56.071 1.199-81.404-0.904-1.464 1.853-6.146 0.487-9.045 0.904 3.336 2.425-4.746 0.736-3.618 4.975 14.088 0.041 28.94-0.871 43.416 0-1.437 1.07-1.168 2.406-1.357 4.07-1.06 9.358 0.814 21.605 0 32.562-5.052 1.816-10.438 0.141-14.924 0.905 1.391 5.215-0.571 13.092 0.905 17.185 14.191-0.069 32.626 0.097 43.868 0 1.692-3.918 0.979-12.544 0.452-17.185-5.096-0.715-8.538-0.259-15.376-0.453-0.855-12.474 0.629-27.743-0.904-37.537 8.955-0.286 16.692 1.405 23.969-0.452-8.141-0.301-17.485 0.602-24.873-0.452 13.557-0.567 31.464 1.156 42.059-0.904-3.544-2.82-8.206-1.081-12.211-0.905-22.971 1.01-44.69-0.949-68.289-0.904 24.129-0.695 52.429-0.33 76.879-0.465zm4.98 34.819c0.315-7.367-0.183-20.163 0-31.205-0.1-0.353-0.378-0.526-0.904-0.452 0.9 8.527-0.19 21.037 0.9 31.657zm-18.09-30.296c4.676-0.3 10.55 0.6 14.473-0.453-4.82 0.145-9.18-1.41-14.47 0.453zm-67.841 8.136c0.142 0.612 0.644 0.864 0.452 1.809 2.201 1.278 4.841-0.631 7.688-0.904 3.239-0.311 6.594 1.022 8.592 0-0.9-7.643-14.327-5.972-16.732-0.91zm56.081 1.81c2.309 2.417 5.793-0.315 9.045-0.452 3.682-0.155 8.655 3.503 9.497-0.452-2.76-4.885-17.21-6.348-18.55 0.9zm-41.609 12.21c4.946-8.22-6.01-15.376-11.306-9.498-3.096 3.437-1.654 9.41 1.809 11.759 1.362 0.923 2.566-0.443 4.07 1.809 1.437-2.65 4.174-1.98 5.427-4.07zm52.459 3.62c1.578-0.365 4.615-2.969 4.975-5.879 0.787-6.369-4.56-8.476-8.141-7.688-10.55 2.32-5.18 15.5 3.16 13.57zm19.45 10.4c-0.023-1.512-0.337-6.988-0.905-4.07-1.602 8.228 0.938 20.854 0.452 29.849 0.71-6.7 0.55-19.43 0.46-25.78z" fill="#A99A6F"/>
	<path d="m171.68 196.21c-1.968 0.451-4.056 4.682-5.879 6.784-1.026-0.481-0.172-2.843-0.452-4.07-2.103 0.46 0.079 5.205-1.356 6.332-1.784 0.276-0.532-2.483-0.905-3.618-2.257 1.223 1.32 6.561-2.261 7.236-0.852-1.703 0.918-6.371-0.452-8.593-1.505 2.867 0.841 9.584-1.356 11.758-2.025-1.14-0.364-5.968-0.905-8.593-2.826 3.325 1.847 9.891-2.261 12.211-1.027-4.4-0.172-10.683-0.452-15.829-3.2 2.801 2.364 16.472-2.714 19.899-0.036-7.894 0.051-18.016 0-24.421-1.555 2.625-0.904 8.491-0.904 14.02 0 5.283 1.347 11.857-1.809 14.02v-28.492c-1.549 8.262-1.368 22.016 0 29.396-1.161 0.95-0.989 3.232-3.166 3.166 0.243-14.662 0.338-27.342 0-43.868-0.89 12.696-0.428 27.003-0.452 38.441-0.008 3.304 0.999 7.992-2.262 9.497 0.123-21.645-0.143-38.589-0.452-53.365-0.023 14.529-1.495 37.188-0.452 51.556 0.197 2.72 0.998 5.203-2.262 6.332-0.301-9.196 0.603-19.597-0.452-28.04-0.816 5.024-0.452 11.81-0.452 18.09 0 5.77 1.718 12.021-1.809 13.568 0.026-25.215 0.089-47.35-0.452-69.194-0.791 25.121-0.604 47.555 0 71.003-1.709 1.396-2.863 5.457-4.975 4.975-0.199-4.759 0.53-10.962 0-14.472-1.945 5.542 1.412 13.672-1.81 17.638 0.036-5.491-0.17-8.561 0-13.567 0.703-1.607-1.536-0.273-1.356-1.357-0.667-15.068-9.285-24.887-22.612-23.969-16.443 1.132-24.714 21.216-14.472 35.275 5.101 7.002 17.235 10.84 27.135 4.975v2.261c1.817 0.008-0.009-3.626 1.809-3.618 2.129 0.744-0.372 3.268 0.904 4.07 1.764-1.916-0.677-5.173 1.81-7.236 1.903-0.697 0.071 2.34 1.356 2.261 1.31-1.404-0.797-6.224 2.262-5.879 0.704 4.492-1.242 9.418 1.356 10.402-5.863 8.156-11.546 16.494-17.638 24.421 0.073 0.53 0.824 0.382 1.356 0.452-1.181 2.084-6.267 0.617-7.236 0.904-29.466-38.797-58.495-78.981-86.379-118.04 2.808-1.906 10.873-0.604 13.115-0.452v4.975c2.053-0.497 0.11-4.811 0.904-5.427 2.306 2.075 3.033-0.586 6.784 0 0.361 3.688-0.43 10.187 0.453 13.115 1.812-3.163-1.455-11.405 1.809-13.115 0.97 2.045 0.213 5.816 0.453 8.592 1.673-1.699-0.053-6.998 1.356-8.592 3.19 0.173 0.87 2.55 1.357 5.427 2.457-0.106-0.784-5.91 2.261-5.427 1.481 2.833-0.536 11.61 0.904 15.829 1.851-4.029-1.508-13.267 1.809-15.829 0.89 1.22 0.269 3.952 0.452 5.879 2.177-0.234-0.069-4.894 1.357-5.879 1.985 2.172 0.864 5.533 0.904 8.14 0.115 7.382 0.152 14.362 0.453 22.16 1.299-9.778-0.341-21.418 0.904-30.3 24.465 0.184 36.787 0.095 61.054 0v6.332c1.251-1.161-0.314-5.138 0.904-6.332h7.688v19.447c1.532-5.562-0.045-10.702 0.452-18.995 0.855-0.802 2.987-0.33 4.522-0.452-0.13 11.19 0.198 22.101 0.452 28.492 1.221-7.62 0.046-18.877 0.452-28.492 25.062 0.163 45.289-0.69 68.742-0.453-21.551 31.814-44.743 61.988-67.386 92.711-0.025 1.482-1.286 1.729-0.904 3.618-6.281 5.326-9.998 13.217-15.376 19.446 3.798-6.886 8.388-13.79 13.115-20.351 13.95-19.35 29-39.52 43.42-58.8zm-50.2-26.23c0.751-2.665 0.822-8.063-0.452-9.045 0.05 1.43-0.43 6.96 0.45 9.04zm-2.71-1.35c0.168-2.017 0.702-5.276-0.452-7.236 0.29 2.27-0.6 5.72 0.45 7.24zm9.05 15.83c-1.613-6.528 1.015-17.297-1.357-23.065 0.83 8.78-0.89 14.88 1.36 23.06zm4.97 14.47c-0.538-7.653 0.146-25.019-0.905-37.537 0.28 9.25-0.97 26.58 0.91 37.54zm-97.686-31.21c0.421-0.863 1.303-5.314-0.452-5.427 0.289 1.68-0.585 4.51 0.452 5.43zm143.37 19c5.115-7.699 12.461-15.578 16.281-23.065-5.05 7.76-12.45 15.59-16.28 23.06zm-44.32-19.9c0.467 23.893-0.529 37.176 0.904 54.27 0.369-15.101-0.192-34.112 0-55.174-0.1-0.352-0.379-0.525-0.904-0.452v1.35zm-95.88 2.71c-0.275-1.082 0.568-3.281-0.452-3.618 0.068 1.4-1.073 2.81 0.452 3.62zm17.186 28.95c1.572-10.111 1.301-24.717 0.452-32.562-0.2 11.81 0.139 20.49-0.452 32.56zm-9.95-24.88c1.712-0.561 0.971-5.947 0.452-7.236-0.757 2.33-0.187 3.95-0.452 7.24zm6.332 7.24c-0.388-5.253 0.819-11.637-0.905-14.472 0.578 4.54-1.172 11.42 0.905 14.47zm-8.593-2.72c0.385-3.101 0.682-5.478-0.452-8.593 0.296 2.72-0.596 6.63 0.452 8.59zm97.685 9.5c0.384-5.407-0.651-11.433 0-14.472-1.49 3.75-1.39 11.01 0 14.47zm-82.308 13.57c0.556-8.911 1.137-19.869-0.452-26.23 0.342 8.37-0.661 20.08 0.452 26.23zm1.809 0.45c1.657-3.259 1.127-11.649 0.452-14.472-0.231 5.72 0.385 9.87-0.452 14.47zm111.25-6.33c2.079-1.891 6.063-6.532 5.428-8.141-1.34 3.18-3.74 5.31-5.43 8.14zm-31.65 3.17c1.492-1.305 1.492-8.645 0-9.949 0.12 4.27 0.35 5.51 0 9.95zm-76.434 2.71c-0.528-2.336 1.104-6.832-0.904-7.688 0.528 2.34-1.104 6.83 0.904 7.69zm77.334 5.88c-0.527-2.336 1.104-6.832-0.904-7.688 0.52 2.34-1.11 6.83 0.9 7.69zm-5.88 36.18c-0.424-7.497 1.335-12.132-0.452-15.829 0.7 6.73-1.44 12.58 0.45 15.83zm-9.04 10.4c-0.434-1.375 0.969-4.586-0.904-4.522 1.03 1.76-0.92 3.7 0.9 4.52z" fill="#A99A6F"/>
	<path d="m42.34 205.71c1.254-2.134-0.159-6.997 0.453-8.593 5.031 6.591 3.166 20.607 3.166 33.467 0 16.787-1.094 32.941-4.975 48.842-1.718 7.037-4.3 16.304-7.688 19.447-6.948 6.447-17.323 1.457-21.255-5.88-5.409-10.092-7.008-27.35-8.593-42.511-1.669-15.96-2.888-30.323-1.809-45.225 1.098-15.161 15.837-24.728 28.492-25.326 4.938 4.409 7.816 10.876 12.21 15.829-0.807 2.44-0.639 7.49-0.001 9.95zm-6.783-6.78c-0.062-0.842-0.297-1.511-0.904-1.809 0.26 35.784-0.173 68.296-6.332 99.042 1.803-1.056 1.295 0.535 1.357 2.262 1.746-0.091 1.216-2.133 3.166-0.905 6.855-29.784 9.292-71.939 6.784-102.21-0.847 3.962 0.695 5.477-0.904 8.14-0.266-3.653 0.458-8.297-2.261-9.497-0.111 1.85 0.439 4.36-0.906 4.98zm-3.166 49.75c0.934-15.197 1.457-33.215 0.452-48.843-0.389 12.9-0.805 33.45-0.452 48.84zm7.236 15.37c2.931-15.524 4.244-38.297 2.261-57.436 0.759 15.85-0.352 39.32-2.261 57.44zm-11.758 24.42c-0.386-1.312-2.603-3.128-4.975-1.809-6.889 5.58 7.231 9.48 4.975 1.81z" fill="#A99A6F"/>
	<path d="m36.461 193.95c2.719 1.2 1.995 5.844 2.261 9.497 1.6-2.663 0.057-4.178 0.904-8.14 2.508 30.268 0.072 72.423-6.784 102.21-1.95-1.228-1.42 0.814-3.166 0.905-0.062-1.727 0.446-3.317-1.357-2.262 6.158-30.747 6.592-63.259 6.332-99.042 0.607 0.298 0.842 0.967 0.904 1.809 1.347-0.62 0.797-3.13 0.906-4.98zm-0.452 12.67c0.873-0.926 0.306-2.964-0.453-3.618 0.276 1.08-0.567 3.28 0.453 3.62zm3.166 7.23c-0.123-0.968 0.35-4.825-0.452-3.618 0.122 0.97-0.35 4.83 0.452 3.62zm-4.071 37.99c1.241-14.877 1.438-24.68 1.357-41.154-0.1-0.353-0.379-0.526-0.905-0.453 0.46 15.7-1.147 29.42-0.452 41.6zm4.071-29.4c-0.003-2.569 0.491-6.481-0.452-7.236 0.157 1.94-0.401 8.98 0.452 7.24zm-0.905 14.48c1.798-2.024 0.898-11.392 0.453-12.663-0.042 5.21 0.05 8.61-0.453 12.66zm0.453 6.33c-0.155-2.073 0.823-4.926-0.453-5.879 0.291 1.82-0.588 4.81 0.453 5.88zm-0.905 12.21c0.415-2.965 1.486-9.884 0.452-11.306-0.216 3.41-0.887 8.76-0.452 11.31zm-7.236 37.08c2.965-13.257 4.279-26.659 4.07-40.25-0.809 13.67-3.467 27.89-4.07 40.25zm6.784-28.04c-0.818-1.982 1.584-4.689-0.452-4.975 0.659 2.15-1.347 4.46 0.452 4.98zm-2.262 16.28c0.511-3.264 2.156-7.787 0.905-11.307 0.041 3.82-1.544 8.41-0.905 11.31z"/>
	<path d="m205.6 207.07c0.651-5.648-0.269-10.864-2.713-14.924 3.743 4.095 5.059 10.619 5.427 18.09 1.682-3.464-0.451-9.798-1.357-13.567 2.682 3.349 2.642 9.419 2.714 15.376 0.082 1.734-0.37 0.164-1.356 0.452 0.535 4.595 0.169 6.632 0 11.307 2.336-0.902 0.171-6.83 0.904-10.402 1.657 25.284-0.295 61.016-7.688 84.118-2.291-0.648-1.311-1.78-3.166 0 2.52-15.912 4.591-34.049 5.428-52.46 0.799-17.593 3.197-38.483-2.714-52.461 3.58 2.67 4.11 10.04 4.53 14.46zm-0.45 38.89c1.202-12.876 2.197-22.504 0.452-34.371 0.58 12.19-1.12 24.81-0.45 34.37zm2.71-7.24c1.666-2.667 1.165-8.685 0.452-11.306-0.2 3.73 0.47 8.31-0.45 11.31zm-1.81 33.92c1.2-10.683 2.344-20.034 2.714-33.014-0.1-0.353-0.379-0.526-0.904-0.453-0.33 10.84-2.08 22.46-1.81 33.46z"/>
	<path d="m111.99 230.13c-0.861-0.194-1.137-0.974-2.262-0.904 1.245 2.823-1.817 4.248-3.166 5.879-7.141-2.6 2.74-12.33 5.43-4.98z" fill="#EE3224"/>
	<path d="m22.441 290.73c2.451-9.37 7.522 5.12 0 0z" fill="#A99A6F"/>
	<path d="m196.56 290.73c0.278 2.022-2.84 2.257-4.07 1.356-1.97-3.18 3.79-5.23 4.07-1.36z" fill="#A99A6F"/>
	<path d="m7.518 304.3h22.16c0.445 3.362-0.272 10.439 0 16.281 1.373-4.507 0.327-11.432 1.356-16.281 1.642 16.638-1.423 37.552-1.356 54.27-5.104 0.634-12.034 1.771-17.186 1.81-2.959-15.718-3.23-35.48-4.975-54.723 0.001-0.45 0.001-0.91 0.001-1.36z" fill="#A99A6F"/>
	<path d="m198.37 304.3c0.337 8.778-0.53 16.354-0.452 24.874 2.238-7.808-0.363-17.852 2.262-24.874 1.598 5.844-0.175 16.087 0 23.517 1.02-2.379 1.143-7.623 1.356-12.21 0.188-4.011-1.2-8.717 1.357-11.307-0.55 17.34-0.346 35.608-1.81 54.27-2.42-9.018 0.331-17.917-0.452-28.039-1.555 8.889-0.092 18.664-1.809 28.039-2.408-2.341-0.609-9.851-0.453-13.115 0.196-4.096-0.179-8.611 0-14.02-1.352 9.476-0.854 18.682-1.356 27.135-7.728-0.953-11.408 2.83-17.638 0.904-1.582-16.498-2.987-37.821-4.07-54.722 6.79-1.05 15.51-0.17 23.06-0.46z" fill="#A99A6F"/>
	<path d="m88.47 328.72v26.683c1.65-7.697-1.044-19.737 1.357-26.683 3.3 1.33 1.809 5.895 1.809 8.14 0 43.867 0.503 77.573 0.904 130.25-10.749-0.058-20.524 0.109-30.301 0-2.551-40.598-1.22-93.141-2.261-137.94-0.02-0.774 0.336-1.172 0.905-1.357 9.151 0.35 19.829-0.83 27.587 0.91zm0.452 32.56c-0.166-2.157 0.974-3.279-0.452-4.522 0.283 1.38-0.579 3.9 0.452 4.52zm0 5.43c0.452-1.24 0.206-4.799-0.452-4.522 0.283 1.37-0.579 3.89 0.452 4.52zm0 10.86c0.345-1.206 0.284-5.325-0.452-5.88 0.29 1.82-0.588 4.81 0.452 5.88zm0.453 7.68c-0.628-1.114 0.057-4.559-0.905-4.522 0.433 1.38-0.969 4.59 0.905 4.52zm0 9.05c-0.974-1.615 0.846-4.163-0.905-5.427 0.473 1.64-1.026 5.25 0.905 5.43z" fill="#A99A6F"/>
	<path d="m119.68 327.37c7.656 0.827 13.164-0.31 23.517 0.452 0.712 20.72 0.22 45.497 0.452 73.265 0.838-18.841 0.452-43.505 0.452-65.124 0-2.586-1.125-6.367 1.357-8.141 1.861 47.45 0.812 96.07 1.809 139.29h-28.492c-0.628-32.979-0.904-64.73-0.904-102.66 0-11.585-0.376-25.087 0.452-36.181 0.32-0.42 0.81-0.69 1.35-0.9zm24.42 80.95c0.786-0.84 0.583-3.241-0.452-3.618 0.27 1.08-0.57 3.28 0.45 3.62zm0.45 3.16c-0.007-1.199 0.251-2.663-0.904-2.713 0.27 0.93-0.73 3.14 0.9 2.71z" fill="#A99A6F"/>
	<path d="m84.399 489.27c-1.561 1.574 1.282 9.926-1.809 11.306-2.185-4.845-0.17-10.767-0.453-14.924-2.234 4.215 0.072 12.406-1.809 14.924-2.982-3.782 0.112-10.591-0.905-18.09 12.833-1.479 21.587 6.813 21.708 18.09-3.046 0.527-8.223-0.489-11.306 0v-7.688c-1.342 1.521 0.438 6.166-0.905 7.688h-0.904c-2.222-1.83 0.907-6.492-0.904-9.949-0.777 1.8 0.13 7.14-0.905 9.949h-0.904c-2.426-2.61 0.83-8.98-0.903-11.31z" fill="#A99A6F"/>
	<path d="m155.86 500.58c-3.091 0.966-8.303 0.324-10.401 0v-5.427c-1.362 1.84 0.325 5.195-1.357 5.88-3.999-1.028-0.279-6.28-1.809-9.046-1.481 1.986 0.812 7.748-1.357 9.046-1.978-2.093-0.396-7.743-0.904-11.307-1.338 3.958 0.327 8.146-1.809 11.307-2.795-0.611-0.887-3.555-0.904-4.976-0.048-3.717-0.287-7.32 0-10.854-2.622 3.257 0.796 12.555-1.81 15.829-3.042-3.44-0.542-12.423-1.356-18.091 12.44-2.66 21.62 5 21.71 17.64z" fill="#A99A6F"/>
</g>
<metadata><rdf:RDF><cc:Work><dc:format>image/svg+xml</dc:format><dc:type rdf:resource="http://purl.org/dc/dcmitype/StillImage"/><cc:license rdf:resource="http://creativecommons.org/licenses/publicdomain/"/><dc:publisher><cc:Agent rdf:about="http://openclipart.org/"><dc:title>Openclipart</dc:title></cc:Agent></dc:publisher><dc:title>robot</dc:title><dc:date>2006-12-03T07:57:48</dc:date><dc:description>a mid-20th century idea of a robot from a U.S. patent drawing</dc:description><dc:source>http://openclipart.org/detail/1736/robot-by-johnny_automatic-1736</dc:source><dc:creator><cc:Agent><dc:title>johnny_automatic</dc:title></cc:Agent></dc:creator><dc:subject><rdf:Bag><rdf:li>clip art</rdf:li><rdf:li>clipart</rdf:li><rdf:li>externalsource</rdf:li><rdf:li>image</rdf:li><rdf:li>man</rdf:li><rdf:li>mechanical</rdf:li><rdf:li>media</rdf:li><rdf:li>png</rdf:li><rdf:li>public domain</rdf:li><rdf:li>robot</rdf:li><rdf:li>svg</rdf:li><rdf:li>technology</rdf:li><rdf:li>uspto</rdf:li></rdf:Bag></dc:subject></cc:Work><cc:License rdf:about="http://creativecommons.org/licenses/publicdomain/"><cc:permits rdf:resource="http://creativecommons.org/ns#Reproduction"/><cc:permits rdf:resource="http://creativecommons.org/ns#Distribution"/><cc:permits rdf:resource="http://creativecommons.org/ns#DerivativeWorks"/></cc:License></rdf:RDF></metadata></svg>
